<?xml version="1.0" encoding="utf-8" standalone="no"?>
<!DOCTYPE svg PUBLIC "-//W3C//DTD SVG 1.1//EN"
  "http://www.w3.org/Graphics/SVG/1.1/DTD/svg11.dtd">
<svg xmlns:xlink="http://www.w3.org/1999/xlink" width="723.765625pt" height="392.514375pt" viewBox="0 0 723.765625 392.514375" xmlns="http://www.w3.org/2000/svg" version="1.1">
 <metadata>
  <rdf:RDF xmlns:dc="http://purl.org/dc/elements/1.1/" xmlns:cc="http://creativecommons.org/ns#" xmlns:rdf="http://www.w3.org/1999/02/22-rdf-syntax-ns#">
   <cc:Work>
    <dc:type rdf:resource="http://purl.org/dc/dcmitype/StillImage"/>
    <dc:date>2025-08-26T22:01:12.624321</dc:date>
    <dc:format>image/svg+xml</dc:format>
    <dc:creator>
     <cc:Agent>
      <dc:title>Matplotlib v3.10.5, https://matplotlib.org/</dc:title>
     </cc:Agent>
    </dc:creator>
   </cc:Work>
  </rdf:RDF>
 </metadata>
 <defs>
  <style type="text/css">*{stroke-linejoin: round; stroke-linecap: butt}</style>
 </defs>
 <g id="figure_1">
  <g id="patch_1">
   <path d="M 0 392.514375 
L 723.765625 392.514375 
L 723.765625 0 
L 0 0 
z
" style="fill: #ffffff"/>
  </g>
  <g id="axes_1">
   <g id="patch_2">
    <path d="M 46.965625 354.958125 
L 716.565625 354.958125 
L 716.565625 22.318125 
L 46.965625 22.318125 
z
" style="fill: #ffffff"/>
   </g>
   <g id="matplotlib.axis_1">
    <g id="xtick_1">
     <g id="line2d_1">
      <path d="M 77.322813 354.958125 
L 77.322813 22.318125 
" clip-path="url(#p4490472378)" style="fill: none; stroke: #b0b0b0; stroke-width: 0.8; stroke-linecap: square"/>
     </g>
     <g id="line2d_2">
      <defs>
       <path id="m27ca28ea33" d="M 0 0 
L 0 3.5 
" style="stroke: #000000; stroke-width: 0.8"/>
      </defs>
      <g>
       <use xlink:href="#m27ca28ea33" x="77.322813" y="354.958125" style="stroke: #000000; stroke-width: 0.8"/>
      </g>
     </g>
     <g id="text_1">
      <!-- 0 -->
      <g transform="translate(74.141563 369.556562) scale(0.1 -0.1)">
       <defs>
        <path id="DejaVuSans-30" d="M 2034 4250 
Q 1547 4250 1301 3770 
Q 1056 3291 1056 2328 
Q 1056 1369 1301 889 
Q 1547 409 2034 409 
Q 2525 409 2770 889 
Q 3016 1369 3016 2328 
Q 3016 3291 2770 3770 
Q 2525 4250 2034 4250 
z
M 2034 4750 
Q 2819 4750 3233 4129 
Q 3647 3509 3647 2328 
Q 3647 1150 3233 529 
Q 2819 -91 2034 -91 
Q 1250 -91 836 529 
Q 422 1150 422 2328 
Q 422 3509 836 4129 
Q 1250 4750 2034 4750 
z
" transform="scale(0.015625)"/>
       </defs>
       <use xlink:href="#DejaVuSans-30"/>
      </g>
     </g>
    </g>
    <g id="xtick_2">
     <g id="line2d_3">
      <path d="M 199.131608 354.958125 
L 199.131608 22.318125 
" clip-path="url(#p4490472378)" style="fill: none; stroke: #b0b0b0; stroke-width: 0.8; stroke-linecap: square"/>
     </g>
     <g id="line2d_4">
      <g>
       <use xlink:href="#m27ca28ea33" x="199.131608" y="354.958125" style="stroke: #000000; stroke-width: 0.8"/>
      </g>
     </g>
     <g id="text_2">
      <!-- 20000 -->
      <g transform="translate(183.225358 369.556562) scale(0.1 -0.1)">
       <defs>
        <path id="DejaVuSans-32" d="M 1228 531 
L 3431 531 
L 3431 0 
L 469 0 
L 469 531 
Q 828 903 1448 1529 
Q 2069 2156 2228 2338 
Q 2531 2678 2651 2914 
Q 2772 3150 2772 3378 
Q 2772 3750 2511 3984 
Q 2250 4219 1831 4219 
Q 1534 4219 1204 4116 
Q 875 4013 500 3803 
L 500 4441 
Q 881 4594 1212 4672 
Q 1544 4750 1819 4750 
Q 2544 4750 2975 4387 
Q 3406 4025 3406 3419 
Q 3406 3131 3298 2873 
Q 3191 2616 2906 2266 
Q 2828 2175 2409 1742 
Q 1991 1309 1228 531 
z
" transform="scale(0.015625)"/>
       </defs>
       <use xlink:href="#DejaVuSans-32"/>
       <use xlink:href="#DejaVuSans-30" transform="translate(63.623047 0)"/>
       <use xlink:href="#DejaVuSans-30" transform="translate(127.246094 0)"/>
       <use xlink:href="#DejaVuSans-30" transform="translate(190.869141 0)"/>
       <use xlink:href="#DejaVuSans-30" transform="translate(254.492188 0)"/>
      </g>
     </g>
    </g>
    <g id="xtick_3">
     <g id="line2d_5">
      <path d="M 320.940403 354.958125 
L 320.940403 22.318125 
" clip-path="url(#p4490472378)" style="fill: none; stroke: #b0b0b0; stroke-width: 0.8; stroke-linecap: square"/>
     </g>
     <g id="line2d_6">
      <g>
       <use xlink:href="#m27ca28ea33" x="320.940403" y="354.958125" style="stroke: #000000; stroke-width: 0.8"/>
      </g>
     </g>
     <g id="text_3">
      <!-- 40000 -->
      <g transform="translate(305.034153 369.556562) scale(0.1 -0.1)">
       <defs>
        <path id="DejaVuSans-34" d="M 2419 4116 
L 825 1625 
L 2419 1625 
L 2419 4116 
z
M 2253 4666 
L 3047 4666 
L 3047 1625 
L 3713 1625 
L 3713 1100 
L 3047 1100 
L 3047 0 
L 2419 0 
L 2419 1100 
L 313 1100 
L 313 1709 
L 2253 4666 
z
" transform="scale(0.015625)"/>
       </defs>
       <use xlink:href="#DejaVuSans-34"/>
       <use xlink:href="#DejaVuSans-30" transform="translate(63.623047 0)"/>
       <use xlink:href="#DejaVuSans-30" transform="translate(127.246094 0)"/>
       <use xlink:href="#DejaVuSans-30" transform="translate(190.869141 0)"/>
       <use xlink:href="#DejaVuSans-30" transform="translate(254.492188 0)"/>
      </g>
     </g>
    </g>
    <g id="xtick_4">
     <g id="line2d_7">
      <path d="M 442.749198 354.958125 
L 442.749198 22.318125 
" clip-path="url(#p4490472378)" style="fill: none; stroke: #b0b0b0; stroke-width: 0.8; stroke-linecap: square"/>
     </g>
     <g id="line2d_8">
      <g>
       <use xlink:href="#m27ca28ea33" x="442.749198" y="354.958125" style="stroke: #000000; stroke-width: 0.8"/>
      </g>
     </g>
     <g id="text_4">
      <!-- 60000 -->
      <g transform="translate(426.842948 369.556562) scale(0.1 -0.1)">
       <defs>
        <path id="DejaVuSans-36" d="M 2113 2584 
Q 1688 2584 1439 2293 
Q 1191 2003 1191 1497 
Q 1191 994 1439 701 
Q 1688 409 2113 409 
Q 2538 409 2786 701 
Q 3034 994 3034 1497 
Q 3034 2003 2786 2293 
Q 2538 2584 2113 2584 
z
M 3366 4563 
L 3366 3988 
Q 3128 4100 2886 4159 
Q 2644 4219 2406 4219 
Q 1781 4219 1451 3797 
Q 1122 3375 1075 2522 
Q 1259 2794 1537 2939 
Q 1816 3084 2150 3084 
Q 2853 3084 3261 2657 
Q 3669 2231 3669 1497 
Q 3669 778 3244 343 
Q 2819 -91 2113 -91 
Q 1303 -91 875 529 
Q 447 1150 447 2328 
Q 447 3434 972 4092 
Q 1497 4750 2381 4750 
Q 2619 4750 2861 4703 
Q 3103 4656 3366 4563 
z
" transform="scale(0.015625)"/>
       </defs>
       <use xlink:href="#DejaVuSans-36"/>
       <use xlink:href="#DejaVuSans-30" transform="translate(63.623047 0)"/>
       <use xlink:href="#DejaVuSans-30" transform="translate(127.246094 0)"/>
       <use xlink:href="#DejaVuSans-30" transform="translate(190.869141 0)"/>
       <use xlink:href="#DejaVuSans-30" transform="translate(254.492188 0)"/>
      </g>
     </g>
    </g>
    <g id="xtick_5">
     <g id="line2d_9">
      <path d="M 564.557993 354.958125 
L 564.557993 22.318125 
" clip-path="url(#p4490472378)" style="fill: none; stroke: #b0b0b0; stroke-width: 0.8; stroke-linecap: square"/>
     </g>
     <g id="line2d_10">
      <g>
       <use xlink:href="#m27ca28ea33" x="564.557993" y="354.958125" style="stroke: #000000; stroke-width: 0.8"/>
      </g>
     </g>
     <g id="text_5">
      <!-- 80000 -->
      <g transform="translate(548.651743 369.556562) scale(0.1 -0.1)">
       <defs>
        <path id="DejaVuSans-38" d="M 2034 2216 
Q 1584 2216 1326 1975 
Q 1069 1734 1069 1313 
Q 1069 891 1326 650 
Q 1584 409 2034 409 
Q 2484 409 2743 651 
Q 3003 894 3003 1313 
Q 3003 1734 2745 1975 
Q 2488 2216 2034 2216 
z
M 1403 2484 
Q 997 2584 770 2862 
Q 544 3141 544 3541 
Q 544 4100 942 4425 
Q 1341 4750 2034 4750 
Q 2731 4750 3128 4425 
Q 3525 4100 3525 3541 
Q 3525 3141 3298 2862 
Q 3072 2584 2669 2484 
Q 3125 2378 3379 2068 
Q 3634 1759 3634 1313 
Q 3634 634 3220 271 
Q 2806 -91 2034 -91 
Q 1263 -91 848 271 
Q 434 634 434 1313 
Q 434 1759 690 2068 
Q 947 2378 1403 2484 
z
M 1172 3481 
Q 1172 3119 1398 2916 
Q 1625 2713 2034 2713 
Q 2441 2713 2670 2916 
Q 2900 3119 2900 3481 
Q 2900 3844 2670 4047 
Q 2441 4250 2034 4250 
Q 1625 4250 1398 4047 
Q 1172 3844 1172 3481 
z
" transform="scale(0.015625)"/>
       </defs>
       <use xlink:href="#DejaVuSans-38"/>
       <use xlink:href="#DejaVuSans-30" transform="translate(63.623047 0)"/>
       <use xlink:href="#DejaVuSans-30" transform="translate(127.246094 0)"/>
       <use xlink:href="#DejaVuSans-30" transform="translate(190.869141 0)"/>
       <use xlink:href="#DejaVuSans-30" transform="translate(254.492188 0)"/>
      </g>
     </g>
    </g>
    <g id="xtick_6">
     <g id="line2d_11">
      <path d="M 686.366789 354.958125 
L 686.366789 22.318125 
" clip-path="url(#p4490472378)" style="fill: none; stroke: #b0b0b0; stroke-width: 0.8; stroke-linecap: square"/>
     </g>
     <g id="line2d_12">
      <g>
       <use xlink:href="#m27ca28ea33" x="686.366789" y="354.958125" style="stroke: #000000; stroke-width: 0.8"/>
      </g>
     </g>
     <g id="text_6">
      <!-- 100000 -->
      <g transform="translate(667.279289 369.556562) scale(0.1 -0.1)">
       <defs>
        <path id="DejaVuSans-31" d="M 794 531 
L 1825 531 
L 1825 4091 
L 703 3866 
L 703 4441 
L 1819 4666 
L 2450 4666 
L 2450 531 
L 3481 531 
L 3481 0 
L 794 0 
L 794 531 
z
" transform="scale(0.015625)"/>
       </defs>
       <use xlink:href="#DejaVuSans-31"/>
       <use xlink:href="#DejaVuSans-30" transform="translate(63.623047 0)"/>
       <use xlink:href="#DejaVuSans-30" transform="translate(127.246094 0)"/>
       <use xlink:href="#DejaVuSans-30" transform="translate(190.869141 0)"/>
       <use xlink:href="#DejaVuSans-30" transform="translate(254.492188 0)"/>
       <use xlink:href="#DejaVuSans-30" transform="translate(318.115234 0)"/>
      </g>
     </g>
    </g>
    <g id="text_7">
     <!-- Timesteps -->
     <g transform="translate(356.111719 383.234687) scale(0.1 -0.1)">
      <defs>
       <path id="DejaVuSans-54" d="M -19 4666 
L 3928 4666 
L 3928 4134 
L 2272 4134 
L 2272 0 
L 1638 0 
L 1638 4134 
L -19 4134 
L -19 4666 
z
" transform="scale(0.015625)"/>
       <path id="DejaVuSans-69" d="M 603 3500 
L 1178 3500 
L 1178 0 
L 603 0 
L 603 3500 
z
M 603 4863 
L 1178 4863 
L 1178 4134 
L 603 4134 
L 603 4863 
z
" transform="scale(0.015625)"/>
       <path id="DejaVuSans-6d" d="M 3328 2828 
Q 3544 3216 3844 3400 
Q 4144 3584 4550 3584 
Q 5097 3584 5394 3201 
Q 5691 2819 5691 2113 
L 5691 0 
L 5113 0 
L 5113 2094 
Q 5113 2597 4934 2840 
Q 4756 3084 4391 3084 
Q 3944 3084 3684 2787 
Q 3425 2491 3425 1978 
L 3425 0 
L 2847 0 
L 2847 2094 
Q 2847 2600 2669 2842 
Q 2491 3084 2119 3084 
Q 1678 3084 1418 2786 
Q 1159 2488 1159 1978 
L 1159 0 
L 581 0 
L 581 3500 
L 1159 3500 
L 1159 2956 
Q 1356 3278 1631 3431 
Q 1906 3584 2284 3584 
Q 2666 3584 2933 3390 
Q 3200 3197 3328 2828 
z
" transform="scale(0.015625)"/>
       <path id="DejaVuSans-65" d="M 3597 1894 
L 3597 1613 
L 953 1613 
Q 991 1019 1311 708 
Q 1631 397 2203 397 
Q 2534 397 2845 478 
Q 3156 559 3463 722 
L 3463 178 
Q 3153 47 2828 -22 
Q 2503 -91 2169 -91 
Q 1331 -91 842 396 
Q 353 884 353 1716 
Q 353 2575 817 3079 
Q 1281 3584 2069 3584 
Q 2775 3584 3186 3129 
Q 3597 2675 3597 1894 
z
M 3022 2063 
Q 3016 2534 2758 2815 
Q 2500 3097 2075 3097 
Q 1594 3097 1305 2825 
Q 1016 2553 972 2059 
L 3022 2063 
z
" transform="scale(0.015625)"/>
       <path id="DejaVuSans-73" d="M 2834 3397 
L 2834 2853 
Q 2591 2978 2328 3040 
Q 2066 3103 1784 3103 
Q 1356 3103 1142 2972 
Q 928 2841 928 2578 
Q 928 2378 1081 2264 
Q 1234 2150 1697 2047 
L 1894 2003 
Q 2506 1872 2764 1633 
Q 3022 1394 3022 966 
Q 3022 478 2636 193 
Q 2250 -91 1575 -91 
Q 1294 -91 989 -36 
Q 684 19 347 128 
L 347 722 
Q 666 556 975 473 
Q 1284 391 1588 391 
Q 1994 391 2212 530 
Q 2431 669 2431 922 
Q 2431 1156 2273 1281 
Q 2116 1406 1581 1522 
L 1381 1569 
Q 847 1681 609 1914 
Q 372 2147 372 2553 
Q 372 3047 722 3315 
Q 1072 3584 1716 3584 
Q 2034 3584 2315 3537 
Q 2597 3491 2834 3397 
z
" transform="scale(0.015625)"/>
       <path id="DejaVuSans-74" d="M 1172 4494 
L 1172 3500 
L 2356 3500 
L 2356 3053 
L 1172 3053 
L 1172 1153 
Q 1172 725 1289 603 
Q 1406 481 1766 481 
L 2356 481 
L 2356 0 
L 1766 0 
Q 1100 0 847 248 
Q 594 497 594 1153 
L 594 3053 
L 172 3053 
L 172 3500 
L 594 3500 
L 594 4494 
L 1172 4494 
z
" transform="scale(0.015625)"/>
       <path id="DejaVuSans-70" d="M 1159 525 
L 1159 -1331 
L 581 -1331 
L 581 3500 
L 1159 3500 
L 1159 2969 
Q 1341 3281 1617 3432 
Q 1894 3584 2278 3584 
Q 2916 3584 3314 3078 
Q 3713 2572 3713 1747 
Q 3713 922 3314 415 
Q 2916 -91 2278 -91 
Q 1894 -91 1617 61 
Q 1341 213 1159 525 
z
M 3116 1747 
Q 3116 2381 2855 2742 
Q 2594 3103 2138 3103 
Q 1681 3103 1420 2742 
Q 1159 2381 1159 1747 
Q 1159 1113 1420 752 
Q 1681 391 2138 391 
Q 2594 391 2855 752 
Q 3116 1113 3116 1747 
z
" transform="scale(0.015625)"/>
      </defs>
      <use xlink:href="#DejaVuSans-54"/>
      <use xlink:href="#DejaVuSans-69" transform="translate(57.958984 0)"/>
      <use xlink:href="#DejaVuSans-6d" transform="translate(85.742188 0)"/>
      <use xlink:href="#DejaVuSans-65" transform="translate(183.154297 0)"/>
      <use xlink:href="#DejaVuSans-73" transform="translate(244.677734 0)"/>
      <use xlink:href="#DejaVuSans-74" transform="translate(296.777344 0)"/>
      <use xlink:href="#DejaVuSans-65" transform="translate(335.986328 0)"/>
      <use xlink:href="#DejaVuSans-70" transform="translate(397.509766 0)"/>
      <use xlink:href="#DejaVuSans-73" transform="translate(460.986328 0)"/>
     </g>
    </g>
   </g>
   <g id="matplotlib.axis_2">
    <g id="ytick_1">
     <g id="line2d_13">
      <path d="M 46.965625 340.719156 
L 716.565625 340.719156 
" clip-path="url(#p4490472378)" style="fill: none; stroke: #b0b0b0; stroke-width: 0.8; stroke-linecap: square"/>
     </g>
     <g id="line2d_14">
      <defs>
       <path id="m8993c3c626" d="M 0 0 
L -3.5 0 
" style="stroke: #000000; stroke-width: 0.8"/>
      </defs>
      <g>
       <use xlink:href="#m8993c3c626" x="46.965625" y="340.719156" style="stroke: #000000; stroke-width: 0.8"/>
      </g>
     </g>
     <g id="text_8">
      <!-- 0 -->
      <g transform="translate(33.603125 344.518374) scale(0.1 -0.1)">
       <use xlink:href="#DejaVuSans-30"/>
      </g>
     </g>
    </g>
    <g id="ytick_2">
     <g id="line2d_15">
      <path d="M 46.965625 280.006368 
L 716.565625 280.006368 
" clip-path="url(#p4490472378)" style="fill: none; stroke: #b0b0b0; stroke-width: 0.8; stroke-linecap: square"/>
     </g>
     <g id="line2d_16">
      <g>
       <use xlink:href="#m8993c3c626" x="46.965625" y="280.006368" style="stroke: #000000; stroke-width: 0.8"/>
      </g>
     </g>
     <g id="text_9">
      <!-- 100 -->
      <g transform="translate(20.878125 283.805587) scale(0.1 -0.1)">
       <use xlink:href="#DejaVuSans-31"/>
       <use xlink:href="#DejaVuSans-30" transform="translate(63.623047 0)"/>
       <use xlink:href="#DejaVuSans-30" transform="translate(127.246094 0)"/>
      </g>
     </g>
    </g>
    <g id="ytick_3">
     <g id="line2d_17">
      <path d="M 46.965625 219.293581 
L 716.565625 219.293581 
" clip-path="url(#p4490472378)" style="fill: none; stroke: #b0b0b0; stroke-width: 0.8; stroke-linecap: square"/>
     </g>
     <g id="line2d_18">
      <g>
       <use xlink:href="#m8993c3c626" x="46.965625" y="219.293581" style="stroke: #000000; stroke-width: 0.8"/>
      </g>
     </g>
     <g id="text_10">
      <!-- 200 -->
      <g transform="translate(20.878125 223.0928) scale(0.1 -0.1)">
       <use xlink:href="#DejaVuSans-32"/>
       <use xlink:href="#DejaVuSans-30" transform="translate(63.623047 0)"/>
       <use xlink:href="#DejaVuSans-30" transform="translate(127.246094 0)"/>
      </g>
     </g>
    </g>
    <g id="ytick_4">
     <g id="line2d_19">
      <path d="M 46.965625 158.580794 
L 716.565625 158.580794 
" clip-path="url(#p4490472378)" style="fill: none; stroke: #b0b0b0; stroke-width: 0.8; stroke-linecap: square"/>
     </g>
     <g id="line2d_20">
      <g>
       <use xlink:href="#m8993c3c626" x="46.965625" y="158.580794" style="stroke: #000000; stroke-width: 0.8"/>
      </g>
     </g>
     <g id="text_11">
      <!-- 300 -->
      <g transform="translate(20.878125 162.380013) scale(0.1 -0.1)">
       <defs>
        <path id="DejaVuSans-33" d="M 2597 2516 
Q 3050 2419 3304 2112 
Q 3559 1806 3559 1356 
Q 3559 666 3084 287 
Q 2609 -91 1734 -91 
Q 1441 -91 1130 -33 
Q 819 25 488 141 
L 488 750 
Q 750 597 1062 519 
Q 1375 441 1716 441 
Q 2309 441 2620 675 
Q 2931 909 2931 1356 
Q 2931 1769 2642 2001 
Q 2353 2234 1838 2234 
L 1294 2234 
L 1294 2753 
L 1863 2753 
Q 2328 2753 2575 2939 
Q 2822 3125 2822 3475 
Q 2822 3834 2567 4026 
Q 2313 4219 1838 4219 
Q 1578 4219 1281 4162 
Q 984 4106 628 3988 
L 628 4550 
Q 988 4650 1302 4700 
Q 1616 4750 1894 4750 
Q 2613 4750 3031 4423 
Q 3450 4097 3450 3541 
Q 3450 3153 3228 2886 
Q 3006 2619 2597 2516 
z
" transform="scale(0.015625)"/>
       </defs>
       <use xlink:href="#DejaVuSans-33"/>
       <use xlink:href="#DejaVuSans-30" transform="translate(63.623047 0)"/>
       <use xlink:href="#DejaVuSans-30" transform="translate(127.246094 0)"/>
      </g>
     </g>
    </g>
    <g id="ytick_5">
     <g id="line2d_21">
      <path d="M 46.965625 97.868007 
L 716.565625 97.868007 
" clip-path="url(#p4490472378)" style="fill: none; stroke: #b0b0b0; stroke-width: 0.8; stroke-linecap: square"/>
     </g>
     <g id="line2d_22">
      <g>
       <use xlink:href="#m8993c3c626" x="46.965625" y="97.868007" style="stroke: #000000; stroke-width: 0.8"/>
      </g>
     </g>
     <g id="text_12">
      <!-- 400 -->
      <g transform="translate(20.878125 101.667226) scale(0.1 -0.1)">
       <use xlink:href="#DejaVuSans-34"/>
       <use xlink:href="#DejaVuSans-30" transform="translate(63.623047 0)"/>
       <use xlink:href="#DejaVuSans-30" transform="translate(127.246094 0)"/>
      </g>
     </g>
    </g>
    <g id="ytick_6">
     <g id="line2d_23">
      <path d="M 46.965625 37.15522 
L 716.565625 37.15522 
" clip-path="url(#p4490472378)" style="fill: none; stroke: #b0b0b0; stroke-width: 0.8; stroke-linecap: square"/>
     </g>
     <g id="line2d_24">
      <g>
       <use xlink:href="#m8993c3c626" x="46.965625" y="37.15522" style="stroke: #000000; stroke-width: 0.8"/>
      </g>
     </g>
     <g id="text_13">
      <!-- 500 -->
      <g transform="translate(20.878125 40.954439) scale(0.1 -0.1)">
       <defs>
        <path id="DejaVuSans-35" d="M 691 4666 
L 3169 4666 
L 3169 4134 
L 1269 4134 
L 1269 2991 
Q 1406 3038 1543 3061 
Q 1681 3084 1819 3084 
Q 2600 3084 3056 2656 
Q 3513 2228 3513 1497 
Q 3513 744 3044 326 
Q 2575 -91 1722 -91 
Q 1428 -91 1123 -41 
Q 819 9 494 109 
L 494 744 
Q 775 591 1075 516 
Q 1375 441 1709 441 
Q 2250 441 2565 725 
Q 2881 1009 2881 1497 
Q 2881 1984 2565 2268 
Q 2250 2553 1709 2553 
Q 1456 2553 1204 2497 
Q 953 2441 691 2322 
L 691 4666 
z
" transform="scale(0.015625)"/>
       </defs>
       <use xlink:href="#DejaVuSans-35"/>
       <use xlink:href="#DejaVuSans-30" transform="translate(63.623047 0)"/>
       <use xlink:href="#DejaVuSans-30" transform="translate(127.246094 0)"/>
      </g>
     </g>
    </g>
    <g id="text_14">
     <!-- Reward -->
     <g transform="translate(14.798438 207.259219) rotate(-90) scale(0.1 -0.1)">
      <defs>
       <path id="DejaVuSans-52" d="M 2841 2188 
Q 3044 2119 3236 1894 
Q 3428 1669 3622 1275 
L 4263 0 
L 3584 0 
L 2988 1197 
Q 2756 1666 2539 1819 
Q 2322 1972 1947 1972 
L 1259 1972 
L 1259 0 
L 628 0 
L 628 4666 
L 2053 4666 
Q 2853 4666 3247 4331 
Q 3641 3997 3641 3322 
Q 3641 2881 3436 2590 
Q 3231 2300 2841 2188 
z
M 1259 4147 
L 1259 2491 
L 2053 2491 
Q 2509 2491 2742 2702 
Q 2975 2913 2975 3322 
Q 2975 3731 2742 3939 
Q 2509 4147 2053 4147 
L 1259 4147 
z
" transform="scale(0.015625)"/>
       <path id="DejaVuSans-77" d="M 269 3500 
L 844 3500 
L 1563 769 
L 2278 3500 
L 2956 3500 
L 3675 769 
L 4391 3500 
L 4966 3500 
L 4050 0 
L 3372 0 
L 2619 2869 
L 1863 0 
L 1184 0 
L 269 3500 
z
" transform="scale(0.015625)"/>
       <path id="DejaVuSans-61" d="M 2194 1759 
Q 1497 1759 1228 1600 
Q 959 1441 959 1056 
Q 959 750 1161 570 
Q 1363 391 1709 391 
Q 2188 391 2477 730 
Q 2766 1069 2766 1631 
L 2766 1759 
L 2194 1759 
z
M 3341 1997 
L 3341 0 
L 2766 0 
L 2766 531 
Q 2569 213 2275 61 
Q 1981 -91 1556 -91 
Q 1019 -91 701 211 
Q 384 513 384 1019 
Q 384 1609 779 1909 
Q 1175 2209 1959 2209 
L 2766 2209 
L 2766 2266 
Q 2766 2663 2505 2880 
Q 2244 3097 1772 3097 
Q 1472 3097 1187 3025 
Q 903 2953 641 2809 
L 641 3341 
Q 956 3463 1253 3523 
Q 1550 3584 1831 3584 
Q 2591 3584 2966 3190 
Q 3341 2797 3341 1997 
z
" transform="scale(0.015625)"/>
       <path id="DejaVuSans-72" d="M 2631 2963 
Q 2534 3019 2420 3045 
Q 2306 3072 2169 3072 
Q 1681 3072 1420 2755 
Q 1159 2438 1159 1844 
L 1159 0 
L 581 0 
L 581 3500 
L 1159 3500 
L 1159 2956 
Q 1341 3275 1631 3429 
Q 1922 3584 2338 3584 
Q 2397 3584 2469 3576 
Q 2541 3569 2628 3553 
L 2631 2963 
z
" transform="scale(0.015625)"/>
       <path id="DejaVuSans-64" d="M 2906 2969 
L 2906 4863 
L 3481 4863 
L 3481 0 
L 2906 0 
L 2906 525 
Q 2725 213 2448 61 
Q 2172 -91 1784 -91 
Q 1150 -91 751 415 
Q 353 922 353 1747 
Q 353 2572 751 3078 
Q 1150 3584 1784 3584 
Q 2172 3584 2448 3432 
Q 2725 3281 2906 2969 
z
M 947 1747 
Q 947 1113 1208 752 
Q 1469 391 1925 391 
Q 2381 391 2643 752 
Q 2906 1113 2906 1747 
Q 2906 2381 2643 2742 
Q 2381 3103 1925 3103 
Q 1469 3103 1208 2742 
Q 947 2381 947 1747 
z
" transform="scale(0.015625)"/>
      </defs>
      <use xlink:href="#DejaVuSans-52"/>
      <use xlink:href="#DejaVuSans-65" transform="translate(64.982422 0)"/>
      <use xlink:href="#DejaVuSans-77" transform="translate(126.505859 0)"/>
      <use xlink:href="#DejaVuSans-61" transform="translate(208.292969 0)"/>
      <use xlink:href="#DejaVuSans-72" transform="translate(269.572266 0)"/>
      <use xlink:href="#DejaVuSans-64" transform="translate(308.935547 0)"/>
     </g>
    </g>
   </g>
   <g id="line2d_25">
    <path d="M 78.023213 283.923032 
L 78.918508 271.881586 
L 79.478829 297.682298 
L 79.740718 326.559499 
L 79.899069 329.091177 
L 80.33149 306.691049 
L 80.660374 336.289979 
L 80.751731 335.341745 
L 80.897901 330.295629 
L 81.007529 333.725702 
L 81.202423 329.344085 
L 81.275508 337.188988 
L 81.549578 318.133535 
L 81.640935 333.76216 
L 81.829738 334.743546 
L 82.633676 279.321261 
L 82.846842 327.027287 
L 83.498519 289.703049 
L 83.626418 331.419414 
L 84.010116 313.141503 
L 84.265914 336.365623 
L 84.570436 324.973676 
L 84.789692 337.268282 
L 85.45355 291.536842 
L 85.782434 334.008723 
L 86.312302 306.855548 
L 86.397568 334.476977 
L 86.665548 324.207586 
L 86.927436 324.910121 
L 87.597385 292.083429 
L 87.883635 321.249206 
L 88.182067 316.205316 
L 88.346509 328.181013 
L 88.77893 306.022272 
L 88.967734 328.611452 
L 89.260075 330.671304 
L 89.339251 337.081264 
L 89.869119 295.54388 
L 90.283269 304.428322 
L 90.569519 333.92886 
L 91.501357 286.067109 
L 91.635346 331.27344 
L 91.81806 326.760523 
L 91.95814 334.130072 
L 92.451465 315.771141 
L 92.609817 330.914497 
L 92.822982 324.37123 
L 93.030057 324.808433 
L 93.291946 321.703797 
L 93.724367 305.166803 
L 93.90708 329.088852 
L 94.674476 286.111387 
L 94.814556 335.143769 
L 95.00336 329.282265 
L 95.441871 307.181661 
L 95.575861 331.438987 
L 95.69767 333.010016 
L 95.849931 330.292284 
L 96.087458 322.672088 
L 96.209267 332.790725 
L 96.458975 321.462624 
L 96.592964 330.914195 
L 96.958391 311.400802 
L 97.402993 327.17132 
L 97.579616 327.279352 
L 97.938951 316.830741 
L 98.115574 328.576719 
L 98.730709 292.024417 
L 98.88297 329.618531 
L 99.181401 317.652565 
L 99.534647 310.761394 
L 99.875711 314.529929 
L 100.003611 332.398289 
L 100.186324 325.284535 
L 100.557841 321.109215 
L 100.771006 323.206928 
L 101.179065 320.922492 
L 101.349598 328.072136 
L 101.80029 304.25531 
L 101.897737 334.518982 
L 102.019546 331.963047 
L 102.232712 324.022983 
L 102.384973 328.779134 
L 102.76258 331.030441 
L 102.914841 329.867393 
L 103.17673 318.590227 
L 103.298538 332.003126 
L 103.487342 328.721499 
L 104.096386 294.200576 
L 104.212104 332.8143 
L 105.016042 292.271809 
L 105.497187 308.750225 
L 105.728624 335.701015 
L 106.36203 295.644515 
L 106.422934 339.143115 
L 106.727456 315.922376 
L 107.05634 313.442545 
L 107.397404 319.437504 
L 107.592299 326.931323 
L 107.659293 338.043115 
L 107.781102 332.605266 
L 107.915092 332.021854 
L 108.219614 314.012883 
L 108.353603 334.849855 
L 108.451051 333.547781 
L 108.938286 305.964457 
L 109.181903 320.27198 
L 109.352436 337.399561 
L 109.468154 332.843717 
L 109.516877 339.480209 
L 109.602144 337.281037 
L 109.760495 328.95541 
L 109.918846 329.225704 
L 110.138102 326.511059 
L 110.978583 307.107472 
L 111.337919 331.026976 
L 111.502361 330.349384 
L 112.062681 298.996846 
L 112.227123 337.535452 
L 112.616911 313.386872 
L 112.720449 333.012526 
L 113.006699 322.981544 
L 113.414759 329.882254 
L 113.634015 325.140022 
L 113.810637 326.593395 
L 113.938537 332.469004 
L 114.090798 331.604417 
L 114.26742 328.421106 
L 114.596304 311.772825 
L 114.724203 330.938889 
L 114.925188 327.869773 
L 115.193167 336.903746 
L 115.552503 316.10904 
L 116.009286 314.080895 
L 116.155457 330.988643 
L 116.685325 309.934525 
L 117.002028 332.965626 
L 118.287111 285.537772 
L 118.82916 297.383315 
L 118.896155 339.02796 
L 119.444294 299.058646 
L 119.596555 330.294457 
L 119.961982 318.171668 
L 120.400493 310.442071 
L 120.510121 333.494475 
L 121.283607 309.442841 
L 121.539406 320.633651 
L 121.783023 322.937726 
L 122.069274 321.141357 
L 122.465152 313.827926 
L 122.660046 330.638055 
L 123.092468 315.990027 
L 123.409171 318.272831 
L 123.634517 321.936738 
L 124.761248 268.661528 
L 124.870876 334.92199 
L 125.023137 330.225387 
L 125.693085 284.357144 
L 125.991517 319.155215 
L 126.247315 324.181231 
L 126.411757 338.466592 
L 127.051254 294.801354 
L 127.897825 275.968518 
L 128.415512 298.435116 
L 128.53123 332.920699 
L 128.768758 325.55378 
L 129.097641 322.714831 
L 130.035569 274.424949 
L 130.19392 327.836876 
L 130.4619 322.746063 
L 130.723789 325.875078 
L 131.728711 265.378539 
L 133.153874 254.01442 
L 133.300045 330.273847 
L 134.3476 266.219065 
L 135.437789 262.232055 
L 136.174732 294.613581 
L 137.587714 240.736166 
L 137.782608 327.258823 
L 138.586546 283.476477 
L 139.000696 314.952061 
L 139.134686 334.042527 
L 139.317399 331.37309 
L 141.168893 197.766129 
L 141.790118 308.521037 
L 142.155544 312.761594 
L 142.50879 323.031176 
L 142.740226 322.779038 
L 142.977753 323.075893 
L 143.148286 329.927524 
L 143.452808 324.698749 
L 143.933953 302.639104 
L 144.238475 317.471073 
L 144.72571 310.161908 
L 145.687999 262.32426 
L 146.217867 311.478418 
L 146.327495 338.258996 
L 147.131433 290.495522 
L 147.576036 308.174052 
L 147.978005 314.995757 
L 148.105904 332.82953 
L 150.310643 177.798555 
L 150.913596 298.331896 
L 151.857615 275.928414 
L 153.806555 198.048451 
L 154.2877 309.726918 
L 155.286532 276.451563 
L 156.522892 244.81123 
L 156.748238 326.914995 
L 157.253744 307.373517 
L 157.491271 324.657936 
L 158.691088 256.591406 
L 159.044334 317.973504 
L 159.373217 319.903841 
L 160.786199 260.119003 
L 163.003119 183.669119 
L 163.405088 317.271565 
L 164.075037 295.344166 
L 164.172484 334.004935 
L 164.726714 301.252791 
L 165.439295 292.382824 
L 165.804722 316.17591 
L 166.60866 287.85681 
L 167.497864 283.358213 
L 168.253078 286.780505 
L 169.008293 291.613025 
L 169.391991 314.450131 
L 171.566278 197.965241 
L 173.161973 238.123995 
L 173.600485 318.5529 
L 174.556684 271.231358 
L 175.512883 281.770426 
L 176.852779 246.100747 
L 177.498366 302.456732 
L 179.733557 187.559987 
L 181.079545 246.667854 
L 181.444971 319.201602 
L 182.303723 275.021289 
L 182.596064 326.794063 
L 185.361124 135.926001 
L 187.620677 181.629086 
L 188.193178 298.599215 
L 191.238398 111.65406 
L 192.194597 277.105516 
L 194.825667 165.197576 
L 195.160641 318.598571 
L 197.109582 197.963045 
L 197.420194 323.892853 
L 199.229055 218.482765 
L 199.655386 314.276532 
L 202.316908 160.373904 
L 204.058774 220.327355 
L 204.600823 293.650654 
L 206.092981 250.025428 
L 206.415774 323.044675 
L 206.592397 334.23115 
L 208.182002 233.559465 
L 209.040754 330.383415 
L 209.27219 331.849106 
L 209.661978 316.643614 
L 211.714457 193.986162 
L 214.759676 135.697384 
L 215.935131 265.608759 
L 217.268938 251.752068 
L 217.981519 294.912425 
L 219.863465 208.128982 
L 221.197271 257.570513 
L 221.721049 315.243001 
L 223.919698 187.477111 
L 225.290047 319.295484 
L 225.698106 315.297635 
L 227.391249 227.494801 
L 228.670241 265.4003 
L 228.950401 328.167487 
L 229.882238 281.213996 
L 230.290298 315.744546 
L 230.619182 321.75196 
L 231.56929 281.027251 
L 234.61451 142.861355 
L 235.16874 304.472097 
L 237.410022 198.11555 
L 238.536753 266.06813 
L 241.40535 138.212625 
L 242.659981 247.458891 
L 243.390834 297.169626 
L 243.555276 336.312173 
L 245.102247 226.789391 
L 247.148635 191.238624 
L 247.952573 278.886194 
L 250.997793 111.296283 
L 252.161067 264.162106 
L 252.398594 330.332402 
L 255.443814 130.917067 
L 257.526744 198.319739 
L 260.571964 137.030719 
L 266.662404 92.402726 
L 267.655146 272.500304 
L 269.244751 214.701825 
L 272.28997 129.033522 
L 275.33519 128.476846 
L 278.112431 140.666631 
L 278.812831 292.441104 
L 281.858051 117.316665 
L 284.903271 103.649488 
L 287.948491 113.499604 
L 290.993711 128.164388 
L 294.038931 83.804607 
L 297.084151 95.389562 
L 300.129371 89.141174 
L 303.17459 93.292981 
L 304.374407 244.473732 
L 307.419627 107.762294 
L 310.464847 112.661487 
L 313.510067 93.712809 
L 316.555287 83.725214 
L 319.600506 76.977809 
L 322.645726 88.490598 
L 325.690946 70.927319 
L 328.736166 83.762382 
L 331.781386 84.395968 
L 334.826606 75.9616 
L 337.871826 77.614026 
L 340.917046 80.178701 
L 343.962265 60.788999 
L 347.007485 61.70901 
L 350.052705 55.899774 
L 353.097925 66.558659 
L 356.143145 68.742637 
L 359.188365 60.364873 
L 362.233585 68.4128 
L 365.278805 62.063675 
L 368.324024 55.096879 
L 371.369244 50.748637 
L 374.414464 51.553681 
L 377.459684 46.080693 
L 380.504904 46.758079 
L 383.550124 44.764921 
L 386.595344 47.628324 
L 389.640564 45.68912 
L 392.685783 45.892799 
L 395.731003 45.346999 
L 398.776223 47.707402 
L 401.821443 42.001923 
L 404.866663 43.656887 
L 407.911883 40.979395 
L 410.957103 40.794337 
L 414.002323 41.797688 
L 417.047543 41.619374 
L 420.092762 43.145661 
L 423.137982 41.128917 
L 426.183202 41.390107 
L 429.228422 39.530241 
L 432.273642 40.380531 
L 435.318862 41.529568 
L 438.364082 39.219025 
L 441.409302 39.056737 
L 447.499741 39.319873 
L 450.544961 40.463444 
L 456.635401 40.770214 
L 459.680621 39.356355 
L 462.725841 38.995724 
L 465.771061 39.705943 
L 468.81628 39.934171 
L 474.90672 39.674741 
L 477.95194 40.536185 
L 480.99716 39.000801 
L 484.04238 38.743594 
L 487.0876 39.968041 
L 490.13282 39.278926 
L 493.178039 39.274257 
L 496.223259 40.763191 
L 499.268479 40.111707 
L 502.313699 40.42498 
L 505.358919 42.729761 
L 508.404139 39.262844 
L 511.449359 42.316696 
L 514.494579 41.736842 
L 517.539798 40.679945 
L 523.630238 39.833564 
L 526.675458 40.10311 
L 529.720678 43.097969 
L 532.765898 40.856665 
L 535.811118 45.38098 
L 538.856338 40.996423 
L 541.901558 42.908223 
L 544.946777 43.541643 
L 547.991997 41.879749 
L 551.037217 41.277364 
L 554.082437 40.11532 
L 557.127657 42.433719 
L 560.172877 40.076096 
L 563.218097 41.407153 
L 566.263317 42.861477 
L 569.308536 39.634387 
L 572.353756 42.069458 
L 575.398976 44.252305 
L 578.444196 40.463778 
L 581.489416 42.924065 
L 584.534636 42.227335 
L 587.579856 40.275403 
L 590.625076 40.984435 
L 593.670295 39.607688 
L 596.715515 40.765526 
L 599.760735 42.782584 
L 602.805955 40.965314 
L 605.851175 41.293632 
L 608.896395 42.502329 
L 611.941615 41.542871 
L 618.032054 41.315532 
L 621.077274 41.289907 
L 624.122494 41.557267 
L 627.167714 40.401375 
L 630.212934 41.404633 
L 633.258154 41.727689 
L 636.303374 39.840067 
L 639.348594 39.767307 
L 642.393813 40.867004 
L 645.439033 39.55027 
L 648.484253 41.133234 
L 651.529473 39.05759 
L 654.574693 40.569425 
L 657.619913 38.713301 
L 660.665133 38.592461 
L 663.710353 40.771251 
L 666.755572 38.961225 
L 669.800792 40.757577 
L 672.846012 39.620713 
L 675.891232 38.051367 
L 678.936452 39.449736 
L 681.981672 39.453405 
L 685.026892 37.814838 
L 685.026892 37.814838 
" clip-path="url(#p4490472378)" style="fill: none; stroke: #0000ff; stroke-width: 1.5; stroke-linecap: square"/>
   </g>
   <g id="line2d_26">
    <path d="M 77.401989 336.764174 
L 77.56034 332.034194 
L 77.901405 311.430973 
L 78.120661 333.345821 
L 78.230288 332.574969 
L 78.279012 338.428238 
L 78.339916 337.094987 
L 78.400821 337.242684 
L 78.540901 335.879031 
L 78.601805 337.807863 
L 78.674891 335.359817 
L 78.741885 336.145568 
L 78.796699 337.504195 
L 78.924599 335.752038 
L 79.174307 337.136265 
L 79.241301 336.042773 
L 79.296115 337.834499 
L 79.36311 335.93496 
L 79.424015 337.125152 
L 79.478829 337.191138 
L 79.521462 339.40355 
L 79.582366 336.617946 
L 79.64327 336.697646 
L 79.691994 337.866019 
L 79.752898 337.221893 
L 79.807712 337.451244 
L 79.850345 338.821107 
L 79.978245 335.705427 
L 80.05742 339.75245 
L 80.100053 338.838034 
L 80.154867 336.903401 
L 80.1975 339.597002 
L 80.240134 338.696062 
L 80.337581 338.741439 
L 80.410666 335.096282 
L 80.538565 337.001948 
L 80.60556 335.961799 
L 80.709097 338.727876 
L 80.757821 338.090401 
L 80.812635 337.517784 
L 80.897901 338.966238 
L 80.964896 336.369259 
L 81.01971 337.294433 
L 81.1537 335.933533 
L 81.275508 336.742757 
L 81.318141 339.184492 
L 81.372955 336.789593 
L 81.43995 336.118793 
L 81.476493 339.426764 
L 81.537397 336.756186 
L 81.592211 337.859381 
L 81.665296 335.977763 
L 81.726201 337.207363 
L 81.805377 339.67292 
L 81.84801 339.323815 
L 81.915004 336.00717 
L 81.963728 338.418181 
L 82.018542 337.552955 
L 82.067265 338.154053 
L 82.115989 337.81678 
L 82.189074 336.037788 
L 82.249979 336.470623 
L 82.304793 337.909852 
L 82.359607 337.049987 
L 82.432692 335.692 
L 82.499687 336.290863 
L 82.560591 336.157355 
L 82.676309 336.844204 
L 82.792028 336.627496 
L 82.859023 335.694848 
L 82.926017 335.996067 
L 82.974741 338.342487 
L 83.035645 336.826589 
L 83.090459 337.257741 
L 83.151364 336.526318 
L 83.200087 337.52646 
L 83.267082 336.339648 
L 83.321896 337.157377 
L 83.37062 338.80057 
L 83.419343 338.132523 
L 83.480248 336.659569 
L 83.535061 336.933588 
L 83.626418 339.629948 
L 83.669051 339.117153 
L 83.742136 335.649178 
L 83.79086 338.300433 
L 83.857855 335.953959 
L 83.92485 336.38885 
L 83.991844 336.510752 
L 84.2111 338.069443 
L 84.247643 339.308291 
L 84.314638 336.191528 
L 84.381633 336.204498 
L 84.570436 339.30575 
L 84.637431 336.21383 
L 84.686155 338.314842 
L 84.734878 338.291542 
L 84.795783 336.284009 
L 84.868868 339.838125 
L 84.929772 336.300277 
L 84.984586 337.432497 
L 85.027219 339.144817 
L 85.088124 337.440871 
L 85.149028 336.69251 
L 85.203842 336.866818 
L 85.240385 339.690158 
L 85.283018 339.288391 
L 85.343922 336.311858 
L 85.410917 336.602346 
L 85.471821 336.502463 
L 85.611901 338.686564 
L 85.739801 336.407997 
L 85.782434 338.808094 
L 85.843338 336.150985 
L 85.898152 336.794884 
L 85.959056 336.218718 
L 86.026051 335.926559 
L 86.178312 339.426095 
L 86.330573 336.204771 
L 86.440201 338.053069 
L 86.482834 339.388718 
L 86.56201 335.035345 
L 86.604643 339.282896 
L 86.665548 336.496559 
L 86.732542 335.777557 
L 86.848261 337.515984 
L 86.884803 339.769286 
L 86.939617 337.278224 
L 86.988341 338.092907 
L 87.043155 336.666953 
L 87.079697 339.600573 
L 87.128421 338.491486 
L 87.195416 336.18324 
L 87.25632 336.601804 
L 87.402491 338.821474 
L 87.548661 337.791892 
L 87.585204 339.500436 
L 87.640018 337.570703 
L 87.688741 338.3839 
L 87.737465 338.276144 
L 87.871455 335.943519 
L 88.011535 339.509541 
L 88.139434 336.211623 
L 88.389142 336.614963 
L 88.443956 336.896401 
L 88.626669 336.356001 
L 88.681483 337.701796 
L 88.815473 335.779462 
L 88.91292 338.955794 
L 89.034729 336.083853 
L 89.089543 337.062466 
L 89.150447 337.023118 
L 89.211351 336.308943 
L 89.266165 338.347108 
L 92.311385 135.279168 
L 95.356605 47.068609 
L 98.401825 38.929098 
L 101.447045 37.757512 
L 104.492265 39.153639 
L 107.537485 39.476306 
L 110.582704 39.016105 
L 116.673144 39.227826 
L 119.718364 38.528372 
L 122.763584 38.955259 
L 128.854024 38.767774 
L 131.899244 39.624215 
L 134.944463 38.910051 
L 137.989683 39.601796 
L 141.034903 38.675207 
L 144.080123 39.1423 
L 147.125343 39.057831 
L 150.170563 39.943509 
L 153.215783 38.700368 
L 156.261003 38.613564 
L 159.306222 39.888425 
L 162.351442 40.481416 
L 165.396662 40.502205 
L 168.441882 41.575518 
L 171.487102 40.810938 
L 174.532322 39.53315 
L 177.577542 37.653884 
L 183.667981 37.438125 
L 186.713201 38.435584 
L 189.758421 37.789047 
L 195.848861 38.063021 
L 201.939301 37.718399 
L 204.984521 38.212209 
L 208.029741 37.78208 
L 211.07496 37.698574 
L 214.12018 38.78406 
L 217.1654 37.667132 
L 220.21062 37.491727 
L 223.25584 37.669911 
L 226.30106 37.549868 
L 229.34628 37.727923 
L 232.3915 38.208244 
L 235.436719 38.50814 
L 238.481939 38.079122 
L 241.527159 38.517719 
L 247.617599 37.870311 
L 250.662819 38.897007 
L 253.708039 38.579825 
L 256.753259 37.997877 
L 259.798478 37.847632 
L 262.843698 38.717044 
L 265.888918 38.471658 
L 271.979358 38.753081 
L 275.024578 38.806812 
L 278.069798 38.223178 
L 281.115018 38.082902 
L 284.160237 38.825766 
L 287.205457 38.448331 
L 290.250677 38.906345 
L 293.295897 38.840274 
L 296.341117 40.191749 
L 299.386337 39.995258 
L 302.431557 38.863786 
L 305.476777 39.292396 
L 311.567216 38.769645 
L 314.612436 38.372125 
L 317.657656 38.570098 
L 320.702876 39.407715 
L 323.748096 37.870496 
L 329.838536 38.181953 
L 332.883756 37.693868 
L 335.928975 38.142692 
L 338.974195 38.179266 
L 342.019415 37.733703 
L 345.064635 37.683863 
L 348.109855 38.436807 
L 351.155075 37.568007 
L 354.200295 37.561374 
L 357.245515 38.563187 
L 360.290734 38.051571 
L 363.335954 38.071174 
L 366.381174 38.473955 
L 369.426394 38.133743 
L 372.471614 38.29905 
L 375.516834 37.61681 
L 378.562054 37.71977 
L 381.607274 38.207281 
L 384.652493 38.013366 
L 387.697713 38.280115 
L 390.742933 37.80272 
L 393.788153 37.938883 
L 396.833373 37.839295 
L 399.878593 37.870237 
L 402.923813 37.642471 
L 405.969033 38.052108 
L 409.014252 37.63154 
L 412.059472 37.719585 
L 415.104692 38.715765 
L 418.149912 37.769351 
L 421.195132 38.491094 
L 424.240352 37.776133 
L 427.285572 37.850653 
L 430.330792 38.37496 
L 433.376011 38.206484 
L 439.466451 38.402381 
L 442.511671 37.940699 
L 448.602111 37.77315 
L 457.737771 38.028077 
L 460.78299 38.650936 
L 466.87343 37.927822 
L 469.91865 38.189698 
L 472.96387 37.822749 
L 476.00909 38.079863 
L 479.05431 38.16122 
L 482.09953 37.868125 
L 485.144749 37.706856 
L 488.189969 38.239409 
L 491.235189 38.245134 
L 494.280409 38.36766 
L 497.325629 37.922467 
L 500.370849 38.11377 
L 503.416069 38.097669 
L 506.461289 37.961339 
L 509.506508 37.937457 
L 512.551728 37.777281 
L 515.596948 37.789473 
L 518.642168 38.427709 
L 521.687388 37.875295 
L 527.777828 37.841833 
L 536.913487 38.103598 
L 539.958707 38.487018 
L 543.003927 37.89462 
L 546.049147 38.544862 
L 549.094367 38.104228 
L 552.139587 38.399528 
L 555.184807 38.258659 
L 558.230026 37.810558 
L 561.275246 37.86718 
L 564.320466 38.146212 
L 567.365686 37.950241 
L 570.410906 37.975476 
L 573.456126 37.742782 
L 576.501346 38.042492 
L 579.546566 37.917168 
L 582.591786 38.549031 
L 585.637005 37.968899 
L 588.682225 38.307351 
L 591.727445 37.945683 
L 594.772665 38.514328 
L 597.817885 37.710877 
L 600.863105 37.774576 
L 603.908325 38.522147 
L 606.953545 37.692942 
L 609.998764 37.837442 
L 613.043984 38.362046 
L 616.089204 38.648823 
L 619.134424 37.804518 
L 622.179644 38.642172 
L 625.224864 38.40542 
L 631.315304 37.661963 
L 637.405743 38.467359 
L 640.450963 37.665631 
L 643.496183 37.881168 
L 646.541403 37.981961 
L 652.631843 37.686105 
L 655.677063 37.807704 
L 658.722282 38.662738 
L 661.767502 38.076917 
L 664.812722 38.444792 
L 667.857942 38.062095 
L 670.903162 38.145008 
L 676.993602 37.774076 
L 680.038822 37.986056 
L 683.084041 37.830883 
L 686.129261 38.159256 
L 686.129261 38.159256 
" clip-path="url(#p4490472378)" style="fill: none; stroke: #ff0000; stroke-width: 1.5; stroke-linecap: square"/>
   </g>
   <g id="patch_3">
    <path d="M 46.965625 354.958125 
L 46.965625 22.318125 
" style="fill: none; stroke: #000000; stroke-width: 0.8; stroke-linejoin: miter; stroke-linecap: square"/>
   </g>
   <g id="patch_4">
    <path d="M 716.565625 354.958125 
L 716.565625 22.318125 
" style="fill: none; stroke: #000000; stroke-width: 0.8; stroke-linejoin: miter; stroke-linecap: square"/>
   </g>
   <g id="patch_5">
    <path d="M 46.965625 354.958125 
L 716.565625 354.958125 
" style="fill: none; stroke: #000000; stroke-width: 0.8; stroke-linejoin: miter; stroke-linecap: square"/>
   </g>
   <g id="patch_6">
    <path d="M 46.965625 22.318125 
L 716.565625 22.318125 
" style="fill: none; stroke: #000000; stroke-width: 0.8; stroke-linejoin: miter; stroke-linecap: square"/>
   </g>
   <g id="text_15">
    <!-- DQN vs. TD3 Training Performance -->
    <g transform="translate(277.930938 16.318125) scale(0.12 -0.12)">
     <defs>
      <path id="DejaVuSans-44" d="M 1259 4147 
L 1259 519 
L 2022 519 
Q 2988 519 3436 956 
Q 3884 1394 3884 2338 
Q 3884 3275 3436 3711 
Q 2988 4147 2022 4147 
L 1259 4147 
z
M 628 4666 
L 1925 4666 
Q 3281 4666 3915 4102 
Q 4550 3538 4550 2338 
Q 4550 1131 3912 565 
Q 3275 0 1925 0 
L 628 0 
L 628 4666 
z
" transform="scale(0.015625)"/>
      <path id="DejaVuSans-51" d="M 2522 4238 
Q 1834 4238 1429 3725 
Q 1025 3213 1025 2328 
Q 1025 1447 1429 934 
Q 1834 422 2522 422 
Q 3209 422 3611 934 
Q 4013 1447 4013 2328 
Q 4013 3213 3611 3725 
Q 3209 4238 2522 4238 
z
M 3406 84 
L 4238 -825 
L 3475 -825 
L 2784 -78 
Q 2681 -84 2626 -87 
Q 2572 -91 2522 -91 
Q 1538 -91 948 567 
Q 359 1225 359 2328 
Q 359 3434 948 4092 
Q 1538 4750 2522 4750 
Q 3503 4750 4090 4092 
Q 4678 3434 4678 2328 
Q 4678 1516 4351 937 
Q 4025 359 3406 84 
z
" transform="scale(0.015625)"/>
      <path id="DejaVuSans-4e" d="M 628 4666 
L 1478 4666 
L 3547 763 
L 3547 4666 
L 4159 4666 
L 4159 0 
L 3309 0 
L 1241 3903 
L 1241 0 
L 628 0 
L 628 4666 
z
" transform="scale(0.015625)"/>
      <path id="DejaVuSans-20" transform="scale(0.015625)"/>
      <path id="DejaVuSans-76" d="M 191 3500 
L 800 3500 
L 1894 563 
L 2988 3500 
L 3597 3500 
L 2284 0 
L 1503 0 
L 191 3500 
z
" transform="scale(0.015625)"/>
      <path id="DejaVuSans-2e" d="M 684 794 
L 1344 794 
L 1344 0 
L 684 0 
L 684 794 
z
" transform="scale(0.015625)"/>
      <path id="DejaVuSans-6e" d="M 3513 2113 
L 3513 0 
L 2938 0 
L 2938 2094 
Q 2938 2591 2744 2837 
Q 2550 3084 2163 3084 
Q 1697 3084 1428 2787 
Q 1159 2491 1159 1978 
L 1159 0 
L 581 0 
L 581 3500 
L 1159 3500 
L 1159 2956 
Q 1366 3272 1645 3428 
Q 1925 3584 2291 3584 
Q 2894 3584 3203 3211 
Q 3513 2838 3513 2113 
z
" transform="scale(0.015625)"/>
      <path id="DejaVuSans-67" d="M 2906 1791 
Q 2906 2416 2648 2759 
Q 2391 3103 1925 3103 
Q 1463 3103 1205 2759 
Q 947 2416 947 1791 
Q 947 1169 1205 825 
Q 1463 481 1925 481 
Q 2391 481 2648 825 
Q 2906 1169 2906 1791 
z
M 3481 434 
Q 3481 -459 3084 -895 
Q 2688 -1331 1869 -1331 
Q 1566 -1331 1297 -1286 
Q 1028 -1241 775 -1147 
L 775 -588 
Q 1028 -725 1275 -790 
Q 1522 -856 1778 -856 
Q 2344 -856 2625 -561 
Q 2906 -266 2906 331 
L 2906 616 
Q 2728 306 2450 153 
Q 2172 0 1784 0 
Q 1141 0 747 490 
Q 353 981 353 1791 
Q 353 2603 747 3093 
Q 1141 3584 1784 3584 
Q 2172 3584 2450 3431 
Q 2728 3278 2906 2969 
L 2906 3500 
L 3481 3500 
L 3481 434 
z
" transform="scale(0.015625)"/>
      <path id="DejaVuSans-50" d="M 1259 4147 
L 1259 2394 
L 2053 2394 
Q 2494 2394 2734 2622 
Q 2975 2850 2975 3272 
Q 2975 3691 2734 3919 
Q 2494 4147 2053 4147 
L 1259 4147 
z
M 628 4666 
L 2053 4666 
Q 2838 4666 3239 4311 
Q 3641 3956 3641 3272 
Q 3641 2581 3239 2228 
Q 2838 1875 2053 1875 
L 1259 1875 
L 1259 0 
L 628 0 
L 628 4666 
z
" transform="scale(0.015625)"/>
      <path id="DejaVuSans-66" d="M 2375 4863 
L 2375 4384 
L 1825 4384 
Q 1516 4384 1395 4259 
Q 1275 4134 1275 3809 
L 1275 3500 
L 2222 3500 
L 2222 3053 
L 1275 3053 
L 1275 0 
L 697 0 
L 697 3053 
L 147 3053 
L 147 3500 
L 697 3500 
L 697 3744 
Q 697 4328 969 4595 
Q 1241 4863 1831 4863 
L 2375 4863 
z
" transform="scale(0.015625)"/>
      <path id="DejaVuSans-6f" d="M 1959 3097 
Q 1497 3097 1228 2736 
Q 959 2375 959 1747 
Q 959 1119 1226 758 
Q 1494 397 1959 397 
Q 2419 397 2687 759 
Q 2956 1122 2956 1747 
Q 2956 2369 2687 2733 
Q 2419 3097 1959 3097 
z
M 1959 3584 
Q 2709 3584 3137 3096 
Q 3566 2609 3566 1747 
Q 3566 888 3137 398 
Q 2709 -91 1959 -91 
Q 1206 -91 779 398 
Q 353 888 353 1747 
Q 353 2609 779 3096 
Q 1206 3584 1959 3584 
z
" transform="scale(0.015625)"/>
      <path id="DejaVuSans-63" d="M 3122 3366 
L 3122 2828 
Q 2878 2963 2633 3030 
Q 2388 3097 2138 3097 
Q 1578 3097 1268 2742 
Q 959 2388 959 1747 
Q 959 1106 1268 751 
Q 1578 397 2138 397 
Q 2388 397 2633 464 
Q 2878 531 3122 666 
L 3122 134 
Q 2881 22 2623 -34 
Q 2366 -91 2075 -91 
Q 1284 -91 818 406 
Q 353 903 353 1747 
Q 353 2603 823 3093 
Q 1294 3584 2113 3584 
Q 2378 3584 2631 3529 
Q 2884 3475 3122 3366 
z
" transform="scale(0.015625)"/>
     </defs>
     <use xlink:href="#DejaVuSans-44"/>
     <use xlink:href="#DejaVuSans-51" transform="translate(77.001953 0)"/>
     <use xlink:href="#DejaVuSans-4e" transform="translate(155.712891 0)"/>
     <use xlink:href="#DejaVuSans-20" transform="translate(230.517578 0)"/>
     <use xlink:href="#DejaVuSans-76" transform="translate(262.304688 0)"/>
     <use xlink:href="#DejaVuSans-73" transform="translate(321.484375 0)"/>
     <use xlink:href="#DejaVuSans-2e" transform="translate(373.583984 0)"/>
     <use xlink:href="#DejaVuSans-20" transform="translate(405.371094 0)"/>
     <use xlink:href="#DejaVuSans-54" transform="translate(437.158203 0)"/>
     <use xlink:href="#DejaVuSans-44" transform="translate(498.242188 0)"/>
     <use xlink:href="#DejaVuSans-33" transform="translate(575.244141 0)"/>
     <use xlink:href="#DejaVuSans-20" transform="translate(638.867188 0)"/>
     <use xlink:href="#DejaVuSans-54" transform="translate(670.654297 0)"/>
     <use xlink:href="#DejaVuSans-72" transform="translate(716.988281 0)"/>
     <use xlink:href="#DejaVuSans-61" transform="translate(758.101562 0)"/>
     <use xlink:href="#DejaVuSans-69" transform="translate(819.380859 0)"/>
     <use xlink:href="#DejaVuSans-6e" transform="translate(847.164062 0)"/>
     <use xlink:href="#DejaVuSans-69" transform="translate(910.542969 0)"/>
     <use xlink:href="#DejaVuSans-6e" transform="translate(938.326172 0)"/>
     <use xlink:href="#DejaVuSans-67" transform="translate(1001.705078 0)"/>
     <use xlink:href="#DejaVuSans-20" transform="translate(1065.181641 0)"/>
     <use xlink:href="#DejaVuSans-50" transform="translate(1096.96875 0)"/>
     <use xlink:href="#DejaVuSans-65" transform="translate(1153.646484 0)"/>
     <use xlink:href="#DejaVuSans-72" transform="translate(1215.169922 0)"/>
     <use xlink:href="#DejaVuSans-66" transform="translate(1256.283203 0)"/>
     <use xlink:href="#DejaVuSans-6f" transform="translate(1291.488281 0)"/>
     <use xlink:href="#DejaVuSans-72" transform="translate(1352.669922 0)"/>
     <use xlink:href="#DejaVuSans-6d" transform="translate(1392.033203 0)"/>
     <use xlink:href="#DejaVuSans-61" transform="translate(1489.445312 0)"/>
     <use xlink:href="#DejaVuSans-6e" transform="translate(1550.724609 0)"/>
     <use xlink:href="#DejaVuSans-63" transform="translate(1614.103516 0)"/>
     <use xlink:href="#DejaVuSans-65" transform="translate(1669.083984 0)"/>
    </g>
   </g>
   <g id="legend_1">
    <g id="patch_7">
     <path d="M 654.5125 349.958125 
L 709.565625 349.958125 
Q 711.565625 349.958125 711.565625 347.958125 
L 711.565625 319.601875 
Q 711.565625 317.601875 709.565625 317.601875 
L 654.5125 317.601875 
Q 652.5125 317.601875 652.5125 319.601875 
L 652.5125 347.958125 
Q 652.5125 349.958125 654.5125 349.958125 
z
" style="fill: #ffffff; opacity: 0.8; stroke: #cccccc; stroke-linejoin: miter"/>
    </g>
    <g id="line2d_27">
     <path d="M 656.5125 325.700312 
L 666.5125 325.700312 
L 676.5125 325.700312 
" style="fill: none; stroke: #0000ff; stroke-width: 1.5; stroke-linecap: square"/>
    </g>
    <g id="text_16">
     <!-- DQN -->
     <g transform="translate(684.5125 329.200312) scale(0.1 -0.1)">
      <use xlink:href="#DejaVuSans-44"/>
      <use xlink:href="#DejaVuSans-51" transform="translate(77.001953 0)"/>
      <use xlink:href="#DejaVuSans-4e" transform="translate(155.712891 0)"/>
     </g>
    </g>
    <g id="line2d_28">
     <path d="M 656.5125 340.378437 
L 666.5125 340.378437 
L 676.5125 340.378437 
" style="fill: none; stroke: #ff0000; stroke-width: 1.5; stroke-linecap: square"/>
    </g>
    <g id="text_17">
     <!-- TD3 -->
     <g transform="translate(684.5125 343.878437) scale(0.1 -0.1)">
      <use xlink:href="#DejaVuSans-54"/>
      <use xlink:href="#DejaVuSans-44" transform="translate(61.083984 0)"/>
      <use xlink:href="#DejaVuSans-33" transform="translate(138.085938 0)"/>
     </g>
    </g>
   </g>
  </g>
 </g>
 <defs>
  <clipPath id="p4490472378">
   <rect x="46.965625" y="22.318125" width="669.6" height="332.64"/>
  </clipPath>
 </defs>
</svg>
