<?xml version="1.0" encoding="utf-8" standalone="no"?>
<!DOCTYPE svg PUBLIC "-//W3C//DTD SVG 1.1//EN"
  "http://www.w3.org/Graphics/SVG/1.1/DTD/svg11.dtd">
<svg xmlns:xlink="http://www.w3.org/1999/xlink" width="700pt" height="484.5075pt" viewBox="0 0 700 484.5075" xmlns="http://www.w3.org/2000/svg" version="1.1">
 <metadata>
  <rdf:RDF xmlns:dc="http://purl.org/dc/elements/1.1/" xmlns:cc="http://creativecommons.org/ns#" xmlns:rdf="http://www.w3.org/1999/02/22-rdf-syntax-ns#">
   <cc:Work>
    <dc:type rdf:resource="http://purl.org/dc/dcmitype/StillImage"/>
    <dc:date>2025-08-25T23:19:30.233935</dc:date>
    <dc:format>image/svg+xml</dc:format>
    <dc:creator>
     <cc:Agent>
      <dc:title>Matplotlib v3.10.5, https://matplotlib.org/</dc:title>
     </cc:Agent>
    </dc:creator>
   </cc:Work>
  </rdf:RDF>
 </metadata>
 <defs>
  <style type="text/css">*{stroke-linejoin: round; stroke-linecap: butt}</style>
 </defs>
 <g id="figure_1">
  <g id="patch_1">
   <path d="M 0 484.5075 
L 700 484.5075 
L 700 0 
L 0 0 
z
" style="fill: #ffffff"/>
  </g>
  <g id="axes_1">
   <g id="patch_2">
    <path d="M 67.3 434.16 
L 692.8 434.16 
L 692.8 7.2 
L 67.3 7.2 
z
" style="fill: #ffffff"/>
   </g>
   <g id="matplotlib.axis_1">
    <g id="xtick_1">
     <g id="line2d_1">
      <defs>
       <path id="mb0c788dd7c" d="M 0 0 
L 0 6 
" style="stroke: #262626; stroke-width: 1.2"/>
      </defs>
      <g>
       <use xlink:href="#mb0c788dd7c" x="67.3" y="434.16" style="fill: #262626; stroke: #262626; stroke-width: 1.2"/>
      </g>
     </g>
     <g id="text_1">
      <!-- 0.0 -->
      <g style="fill: #262626" transform="translate(56.18 455.1125) scale(0.16 -0.16)">
       <defs>
        <path id="ArialMT-30" d="M 266 2259 
Q 266 3072 433 3567 
Q 600 4063 929 4331 
Q 1259 4600 1759 4600 
Q 2128 4600 2406 4451 
Q 2684 4303 2865 4023 
Q 3047 3744 3150 3342 
Q 3253 2941 3253 2259 
Q 3253 1453 3087 958 
Q 2922 463 2592 192 
Q 2263 -78 1759 -78 
Q 1097 -78 719 397 
Q 266 969 266 2259 
z
M 844 2259 
Q 844 1131 1108 757 
Q 1372 384 1759 384 
Q 2147 384 2411 759 
Q 2675 1134 2675 2259 
Q 2675 3391 2411 3762 
Q 2147 4134 1753 4134 
Q 1366 4134 1134 3806 
Q 844 3388 844 2259 
z
" transform="scale(0.015625)"/>
        <path id="ArialMT-2e" d="M 581 0 
L 581 641 
L 1222 641 
L 1222 0 
L 581 0 
z
" transform="scale(0.015625)"/>
       </defs>
       <use xlink:href="#ArialMT-30"/>
       <use xlink:href="#ArialMT-2e" transform="translate(55.615234 0)"/>
       <use xlink:href="#ArialMT-30" transform="translate(83.398438 0)"/>
      </g>
     </g>
    </g>
    <g id="xtick_2">
     <g id="line2d_2">
      <g>
       <use xlink:href="#mb0c788dd7c" x="150.7" y="434.16" style="fill: #262626; stroke: #262626; stroke-width: 1.2"/>
      </g>
     </g>
     <g id="text_2">
      <!-- 0.2 -->
      <g style="fill: #262626" transform="translate(139.58 455.1125) scale(0.16 -0.16)">
       <defs>
        <path id="ArialMT-32" d="M 3222 541 
L 3222 0 
L 194 0 
Q 188 203 259 391 
Q 375 700 629 1000 
Q 884 1300 1366 1694 
Q 2113 2306 2375 2664 
Q 2638 3022 2638 3341 
Q 2638 3675 2398 3904 
Q 2159 4134 1775 4134 
Q 1369 4134 1125 3890 
Q 881 3647 878 3216 
L 300 3275 
Q 359 3922 746 4261 
Q 1134 4600 1788 4600 
Q 2447 4600 2831 4234 
Q 3216 3869 3216 3328 
Q 3216 3053 3103 2787 
Q 2991 2522 2730 2228 
Q 2469 1934 1863 1422 
Q 1356 997 1212 845 
Q 1069 694 975 541 
L 3222 541 
z
" transform="scale(0.015625)"/>
       </defs>
       <use xlink:href="#ArialMT-30"/>
       <use xlink:href="#ArialMT-2e" transform="translate(55.615234 0)"/>
       <use xlink:href="#ArialMT-32" transform="translate(83.398438 0)"/>
      </g>
     </g>
    </g>
    <g id="xtick_3">
     <g id="line2d_3">
      <g>
       <use xlink:href="#mb0c788dd7c" x="234.1" y="434.16" style="fill: #262626; stroke: #262626; stroke-width: 1.2"/>
      </g>
     </g>
     <g id="text_3">
      <!-- 0.4 -->
      <g style="fill: #262626" transform="translate(222.98 455.1125) scale(0.16 -0.16)">
       <defs>
        <path id="ArialMT-34" d="M 2069 0 
L 2069 1097 
L 81 1097 
L 81 1613 
L 2172 4581 
L 2631 4581 
L 2631 1613 
L 3250 1613 
L 3250 1097 
L 2631 1097 
L 2631 0 
L 2069 0 
z
M 2069 1613 
L 2069 3678 
L 634 1613 
L 2069 1613 
z
" transform="scale(0.015625)"/>
       </defs>
       <use xlink:href="#ArialMT-30"/>
       <use xlink:href="#ArialMT-2e" transform="translate(55.615234 0)"/>
       <use xlink:href="#ArialMT-34" transform="translate(83.398438 0)"/>
      </g>
     </g>
    </g>
    <g id="xtick_4">
     <g id="line2d_4">
      <g>
       <use xlink:href="#mb0c788dd7c" x="317.5" y="434.16" style="fill: #262626; stroke: #262626; stroke-width: 1.2"/>
      </g>
     </g>
     <g id="text_4">
      <!-- 0.6 -->
      <g style="fill: #262626" transform="translate(306.38 455.1125) scale(0.16 -0.16)">
       <defs>
        <path id="ArialMT-36" d="M 3184 3459 
L 2625 3416 
Q 2550 3747 2413 3897 
Q 2184 4138 1850 4138 
Q 1581 4138 1378 3988 
Q 1113 3794 959 3422 
Q 806 3050 800 2363 
Q 1003 2672 1297 2822 
Q 1591 2972 1913 2972 
Q 2475 2972 2870 2558 
Q 3266 2144 3266 1488 
Q 3266 1056 3080 686 
Q 2894 316 2569 119 
Q 2244 -78 1831 -78 
Q 1128 -78 684 439 
Q 241 956 241 2144 
Q 241 3472 731 4075 
Q 1159 4600 1884 4600 
Q 2425 4600 2770 4297 
Q 3116 3994 3184 3459 
z
M 888 1484 
Q 888 1194 1011 928 
Q 1134 663 1356 523 
Q 1578 384 1822 384 
Q 2178 384 2434 671 
Q 2691 959 2691 1453 
Q 2691 1928 2437 2201 
Q 2184 2475 1800 2475 
Q 1419 2475 1153 2201 
Q 888 1928 888 1484 
z
" transform="scale(0.015625)"/>
       </defs>
       <use xlink:href="#ArialMT-30"/>
       <use xlink:href="#ArialMT-2e" transform="translate(55.615234 0)"/>
       <use xlink:href="#ArialMT-36" transform="translate(83.398438 0)"/>
      </g>
     </g>
    </g>
    <g id="xtick_5">
     <g id="line2d_5">
      <g>
       <use xlink:href="#mb0c788dd7c" x="400.9" y="434.16" style="fill: #262626; stroke: #262626; stroke-width: 1.2"/>
      </g>
     </g>
     <g id="text_5">
      <!-- 0.8 -->
      <g style="fill: #262626" transform="translate(389.78 455.1125) scale(0.16 -0.16)">
       <defs>
        <path id="ArialMT-38" d="M 1131 2484 
Q 781 2613 612 2850 
Q 444 3088 444 3419 
Q 444 3919 803 4259 
Q 1163 4600 1759 4600 
Q 2359 4600 2725 4251 
Q 3091 3903 3091 3403 
Q 3091 3084 2923 2848 
Q 2756 2613 2416 2484 
Q 2838 2347 3058 2040 
Q 3278 1734 3278 1309 
Q 3278 722 2862 322 
Q 2447 -78 1769 -78 
Q 1091 -78 675 323 
Q 259 725 259 1325 
Q 259 1772 486 2073 
Q 713 2375 1131 2484 
z
M 1019 3438 
Q 1019 3113 1228 2906 
Q 1438 2700 1772 2700 
Q 2097 2700 2305 2904 
Q 2513 3109 2513 3406 
Q 2513 3716 2298 3927 
Q 2084 4138 1766 4138 
Q 1444 4138 1231 3931 
Q 1019 3725 1019 3438 
z
M 838 1322 
Q 838 1081 952 856 
Q 1066 631 1291 507 
Q 1516 384 1775 384 
Q 2178 384 2440 643 
Q 2703 903 2703 1303 
Q 2703 1709 2433 1975 
Q 2163 2241 1756 2241 
Q 1359 2241 1098 1978 
Q 838 1716 838 1322 
z
" transform="scale(0.015625)"/>
       </defs>
       <use xlink:href="#ArialMT-30"/>
       <use xlink:href="#ArialMT-2e" transform="translate(55.615234 0)"/>
       <use xlink:href="#ArialMT-38" transform="translate(83.398438 0)"/>
      </g>
     </g>
    </g>
    <g id="xtick_6">
     <g id="line2d_6">
      <g>
       <use xlink:href="#mb0c788dd7c" x="484.3" y="434.16" style="fill: #262626; stroke: #262626; stroke-width: 1.2"/>
      </g>
     </g>
     <g id="text_6">
      <!-- 1.0 -->
      <g style="fill: #262626" transform="translate(473.18 455.1125) scale(0.16 -0.16)">
       <defs>
        <path id="ArialMT-31" d="M 2384 0 
L 1822 0 
L 1822 3584 
Q 1619 3391 1289 3197 
Q 959 3003 697 2906 
L 697 3450 
Q 1169 3672 1522 3987 
Q 1875 4303 2022 4600 
L 2384 4600 
L 2384 0 
z
" transform="scale(0.015625)"/>
       </defs>
       <use xlink:href="#ArialMT-31"/>
       <use xlink:href="#ArialMT-2e" transform="translate(55.615234 0)"/>
       <use xlink:href="#ArialMT-30" transform="translate(83.398438 0)"/>
      </g>
     </g>
    </g>
    <g id="xtick_7">
     <g id="line2d_7">
      <g>
       <use xlink:href="#mb0c788dd7c" x="567.7" y="434.16" style="fill: #262626; stroke: #262626; stroke-width: 1.2"/>
      </g>
     </g>
     <g id="text_7">
      <!-- 1.2 -->
      <g style="fill: #262626" transform="translate(556.58 455.1125) scale(0.16 -0.16)">
       <use xlink:href="#ArialMT-31"/>
       <use xlink:href="#ArialMT-2e" transform="translate(55.615234 0)"/>
       <use xlink:href="#ArialMT-32" transform="translate(83.398438 0)"/>
      </g>
     </g>
    </g>
    <g id="xtick_8">
     <g id="line2d_8">
      <g>
       <use xlink:href="#mb0c788dd7c" x="651.1" y="434.16" style="fill: #262626; stroke: #262626; stroke-width: 1.2"/>
      </g>
     </g>
     <g id="text_8">
      <!-- 1.4 -->
      <g style="fill: #262626" transform="translate(639.98 455.1125) scale(0.16 -0.16)">
       <use xlink:href="#ArialMT-31"/>
       <use xlink:href="#ArialMT-2e" transform="translate(55.615234 0)"/>
       <use xlink:href="#ArialMT-34" transform="translate(83.398438 0)"/>
      </g>
     </g>
    </g>
    <g id="text_9">
     <!-- Time (s) -->
     <g style="fill: #262626" transform="translate(351.02375 473.94) scale(0.16 -0.16)">
      <defs>
       <path id="ArialMT-54" d="M 1659 0 
L 1659 4041 
L 150 4041 
L 150 4581 
L 3781 4581 
L 3781 4041 
L 2266 4041 
L 2266 0 
L 1659 0 
z
" transform="scale(0.015625)"/>
       <path id="ArialMT-69" d="M 425 3934 
L 425 4581 
L 988 4581 
L 988 3934 
L 425 3934 
z
M 425 0 
L 425 3319 
L 988 3319 
L 988 0 
L 425 0 
z
" transform="scale(0.015625)"/>
       <path id="ArialMT-6d" d="M 422 0 
L 422 3319 
L 925 3319 
L 925 2853 
Q 1081 3097 1340 3245 
Q 1600 3394 1931 3394 
Q 2300 3394 2536 3241 
Q 2772 3088 2869 2813 
Q 3263 3394 3894 3394 
Q 4388 3394 4653 3120 
Q 4919 2847 4919 2278 
L 4919 0 
L 4359 0 
L 4359 2091 
Q 4359 2428 4304 2576 
Q 4250 2725 4106 2815 
Q 3963 2906 3769 2906 
Q 3419 2906 3187 2673 
Q 2956 2441 2956 1928 
L 2956 0 
L 2394 0 
L 2394 2156 
Q 2394 2531 2256 2718 
Q 2119 2906 1806 2906 
Q 1569 2906 1367 2781 
Q 1166 2656 1075 2415 
Q 984 2175 984 1722 
L 984 0 
L 422 0 
z
" transform="scale(0.015625)"/>
       <path id="ArialMT-65" d="M 2694 1069 
L 3275 997 
Q 3138 488 2766 206 
Q 2394 -75 1816 -75 
Q 1088 -75 661 373 
Q 234 822 234 1631 
Q 234 2469 665 2931 
Q 1097 3394 1784 3394 
Q 2450 3394 2872 2941 
Q 3294 2488 3294 1666 
Q 3294 1616 3291 1516 
L 816 1516 
Q 847 969 1125 678 
Q 1403 388 1819 388 
Q 2128 388 2347 550 
Q 2566 713 2694 1069 
z
M 847 1978 
L 2700 1978 
Q 2663 2397 2488 2606 
Q 2219 2931 1791 2931 
Q 1403 2931 1139 2672 
Q 875 2413 847 1978 
z
" transform="scale(0.015625)"/>
       <path id="ArialMT-20" transform="scale(0.015625)"/>
       <path id="ArialMT-28" d="M 1497 -1347 
Q 1031 -759 709 28 
Q 388 816 388 1659 
Q 388 2403 628 3084 
Q 909 3875 1497 4659 
L 1900 4659 
Q 1522 4009 1400 3731 
Q 1209 3300 1100 2831 
Q 966 2247 966 1656 
Q 966 153 1900 -1347 
L 1497 -1347 
z
" transform="scale(0.015625)"/>
       <path id="ArialMT-73" d="M 197 991 
L 753 1078 
Q 800 744 1014 566 
Q 1228 388 1613 388 
Q 2000 388 2187 545 
Q 2375 703 2375 916 
Q 2375 1106 2209 1216 
Q 2094 1291 1634 1406 
Q 1016 1563 777 1677 
Q 538 1791 414 1992 
Q 291 2194 291 2438 
Q 291 2659 392 2848 
Q 494 3038 669 3163 
Q 800 3259 1026 3326 
Q 1253 3394 1513 3394 
Q 1903 3394 2198 3281 
Q 2494 3169 2634 2976 
Q 2775 2784 2828 2463 
L 2278 2388 
Q 2241 2644 2061 2787 
Q 1881 2931 1553 2931 
Q 1166 2931 1000 2803 
Q 834 2675 834 2503 
Q 834 2394 903 2306 
Q 972 2216 1119 2156 
Q 1203 2125 1616 2013 
Q 2213 1853 2448 1751 
Q 2684 1650 2818 1456 
Q 2953 1263 2953 975 
Q 2953 694 2789 445 
Q 2625 197 2315 61 
Q 2006 -75 1616 -75 
Q 969 -75 630 194 
Q 291 463 197 991 
z
" transform="scale(0.015625)"/>
       <path id="ArialMT-29" d="M 791 -1347 
L 388 -1347 
Q 1322 153 1322 1656 
Q 1322 2244 1188 2822 
Q 1081 3291 891 3722 
Q 769 4003 388 4659 
L 791 4659 
Q 1378 3875 1659 3084 
Q 1900 2403 1900 1659 
Q 1900 816 1576 28 
Q 1253 -759 791 -1347 
z
" transform="scale(0.015625)"/>
      </defs>
      <use xlink:href="#ArialMT-54"/>
      <use xlink:href="#ArialMT-69" transform="translate(57.333984 0)"/>
      <use xlink:href="#ArialMT-6d" transform="translate(79.550781 0)"/>
      <use xlink:href="#ArialMT-65" transform="translate(162.851562 0)"/>
      <use xlink:href="#ArialMT-20" transform="translate(218.466797 0)"/>
      <use xlink:href="#ArialMT-28" transform="translate(246.25 0)"/>
      <use xlink:href="#ArialMT-73" transform="translate(279.550781 0)"/>
      <use xlink:href="#ArialMT-29" transform="translate(329.550781 0)"/>
     </g>
    </g>
   </g>
   <g id="matplotlib.axis_2">
    <g id="ytick_1">
     <g id="line2d_9">
      <defs>
       <path id="mba73704993" d="M 0 0 
L -6 0 
" style="stroke: #262626; stroke-width: 1.2"/>
      </defs>
      <g>
       <use xlink:href="#mba73704993" x="67.3" y="397.485925" style="fill: #262626; stroke: #262626; stroke-width: 1.2"/>
      </g>
     </g>
     <g id="text_10">
      <!-- −0.8 -->
      <g style="fill: #262626" transform="translate(26.215 403.212175) scale(0.16 -0.16)">
       <defs>
        <path id="ArialMT-2212" d="M 3381 1997 
L 356 1997 
L 356 2522 
L 3381 2522 
L 3381 1997 
z
" transform="scale(0.015625)"/>
       </defs>
       <use xlink:href="#ArialMT-2212"/>
       <use xlink:href="#ArialMT-30" transform="translate(58.398438 0)"/>
       <use xlink:href="#ArialMT-2e" transform="translate(114.013672 0)"/>
       <use xlink:href="#ArialMT-38" transform="translate(141.796875 0)"/>
      </g>
     </g>
    </g>
    <g id="ytick_2">
     <g id="line2d_10">
      <g>
       <use xlink:href="#mba73704993" x="67.3" y="315.068447" style="fill: #262626; stroke: #262626; stroke-width: 1.2"/>
      </g>
     </g>
     <g id="text_11">
      <!-- −0.6 -->
      <g style="fill: #262626" transform="translate(26.215 320.794697) scale(0.16 -0.16)">
       <use xlink:href="#ArialMT-2212"/>
       <use xlink:href="#ArialMT-30" transform="translate(58.398438 0)"/>
       <use xlink:href="#ArialMT-2e" transform="translate(114.013672 0)"/>
       <use xlink:href="#ArialMT-36" transform="translate(141.796875 0)"/>
      </g>
     </g>
    </g>
    <g id="ytick_3">
     <g id="line2d_11">
      <g>
       <use xlink:href="#mba73704993" x="67.3" y="232.650969" style="fill: #262626; stroke: #262626; stroke-width: 1.2"/>
      </g>
     </g>
     <g id="text_12">
      <!-- −0.4 -->
      <g style="fill: #262626" transform="translate(26.215 238.377219) scale(0.16 -0.16)">
       <use xlink:href="#ArialMT-2212"/>
       <use xlink:href="#ArialMT-30" transform="translate(58.398438 0)"/>
       <use xlink:href="#ArialMT-2e" transform="translate(114.013672 0)"/>
       <use xlink:href="#ArialMT-34" transform="translate(141.796875 0)"/>
      </g>
     </g>
    </g>
    <g id="ytick_4">
     <g id="line2d_12">
      <g>
       <use xlink:href="#mba73704993" x="67.3" y="150.23349" style="fill: #262626; stroke: #262626; stroke-width: 1.2"/>
      </g>
     </g>
     <g id="text_13">
      <!-- −0.2 -->
      <g style="fill: #262626" transform="translate(26.215 155.95974) scale(0.16 -0.16)">
       <use xlink:href="#ArialMT-2212"/>
       <use xlink:href="#ArialMT-30" transform="translate(58.398438 0)"/>
       <use xlink:href="#ArialMT-2e" transform="translate(114.013672 0)"/>
       <use xlink:href="#ArialMT-32" transform="translate(141.796875 0)"/>
      </g>
     </g>
    </g>
    <g id="ytick_5">
     <g id="line2d_13">
      <g>
       <use xlink:href="#mba73704993" x="67.3" y="67.816012" style="fill: #262626; stroke: #262626; stroke-width: 1.2"/>
      </g>
     </g>
     <g id="text_14">
      <!-- 0.0 -->
      <g style="fill: #262626" transform="translate(35.56 73.542262) scale(0.16 -0.16)">
       <use xlink:href="#ArialMT-30"/>
       <use xlink:href="#ArialMT-2e" transform="translate(55.615234 0)"/>
       <use xlink:href="#ArialMT-30" transform="translate(83.398438 0)"/>
      </g>
     </g>
    </g>
    <g id="text_15">
     <!-- Angle (rad) -->
     <g style="fill: #262626" transform="translate(18.8475 260.25125) rotate(-90) scale(0.16 -0.16)">
      <defs>
       <path id="ArialMT-41" d="M -9 0 
L 1750 4581 
L 2403 4581 
L 4278 0 
L 3588 0 
L 3053 1388 
L 1138 1388 
L 634 0 
L -9 0 
z
M 1313 1881 
L 2866 1881 
L 2388 3150 
Q 2169 3728 2063 4100 
Q 1975 3659 1816 3225 
L 1313 1881 
z
" transform="scale(0.015625)"/>
       <path id="ArialMT-6e" d="M 422 0 
L 422 3319 
L 928 3319 
L 928 2847 
Q 1294 3394 1984 3394 
Q 2284 3394 2536 3286 
Q 2788 3178 2913 3003 
Q 3038 2828 3088 2588 
Q 3119 2431 3119 2041 
L 3119 0 
L 2556 0 
L 2556 2019 
Q 2556 2363 2490 2533 
Q 2425 2703 2258 2804 
Q 2091 2906 1866 2906 
Q 1506 2906 1245 2678 
Q 984 2450 984 1813 
L 984 0 
L 422 0 
z
" transform="scale(0.015625)"/>
       <path id="ArialMT-67" d="M 319 -275 
L 866 -356 
Q 900 -609 1056 -725 
Q 1266 -881 1628 -881 
Q 2019 -881 2231 -725 
Q 2444 -569 2519 -288 
Q 2563 -116 2559 434 
Q 2191 0 1641 0 
Q 956 0 581 494 
Q 206 988 206 1678 
Q 206 2153 378 2554 
Q 550 2956 876 3175 
Q 1203 3394 1644 3394 
Q 2231 3394 2613 2919 
L 2613 3319 
L 3131 3319 
L 3131 450 
Q 3131 -325 2973 -648 
Q 2816 -972 2473 -1159 
Q 2131 -1347 1631 -1347 
Q 1038 -1347 672 -1080 
Q 306 -813 319 -275 
z
M 784 1719 
Q 784 1066 1043 766 
Q 1303 466 1694 466 
Q 2081 466 2343 764 
Q 2606 1063 2606 1700 
Q 2606 2309 2336 2618 
Q 2066 2928 1684 2928 
Q 1309 2928 1046 2623 
Q 784 2319 784 1719 
z
" transform="scale(0.015625)"/>
       <path id="ArialMT-6c" d="M 409 0 
L 409 4581 
L 972 4581 
L 972 0 
L 409 0 
z
" transform="scale(0.015625)"/>
       <path id="ArialMT-72" d="M 416 0 
L 416 3319 
L 922 3319 
L 922 2816 
Q 1116 3169 1280 3281 
Q 1444 3394 1641 3394 
Q 1925 3394 2219 3213 
L 2025 2691 
Q 1819 2813 1613 2813 
Q 1428 2813 1281 2702 
Q 1134 2591 1072 2394 
Q 978 2094 978 1738 
L 978 0 
L 416 0 
z
" transform="scale(0.015625)"/>
       <path id="ArialMT-61" d="M 2588 409 
Q 2275 144 1986 34 
Q 1697 -75 1366 -75 
Q 819 -75 525 192 
Q 231 459 231 875 
Q 231 1119 342 1320 
Q 453 1522 633 1644 
Q 813 1766 1038 1828 
Q 1203 1872 1538 1913 
Q 2219 1994 2541 2106 
Q 2544 2222 2544 2253 
Q 2544 2597 2384 2738 
Q 2169 2928 1744 2928 
Q 1347 2928 1158 2789 
Q 969 2650 878 2297 
L 328 2372 
Q 403 2725 575 2942 
Q 747 3159 1072 3276 
Q 1397 3394 1825 3394 
Q 2250 3394 2515 3294 
Q 2781 3194 2906 3042 
Q 3031 2891 3081 2659 
Q 3109 2516 3109 2141 
L 3109 1391 
Q 3109 606 3145 398 
Q 3181 191 3288 0 
L 2700 0 
Q 2613 175 2588 409 
z
M 2541 1666 
Q 2234 1541 1622 1453 
Q 1275 1403 1131 1340 
Q 988 1278 909 1158 
Q 831 1038 831 891 
Q 831 666 1001 516 
Q 1172 366 1500 366 
Q 1825 366 2078 508 
Q 2331 650 2450 897 
Q 2541 1088 2541 1459 
L 2541 1666 
z
" transform="scale(0.015625)"/>
       <path id="ArialMT-64" d="M 2575 0 
L 2575 419 
Q 2259 -75 1647 -75 
Q 1250 -75 917 144 
Q 584 363 401 755 
Q 219 1147 219 1656 
Q 219 2153 384 2558 
Q 550 2963 881 3178 
Q 1213 3394 1622 3394 
Q 1922 3394 2156 3267 
Q 2391 3141 2538 2938 
L 2538 4581 
L 3097 4581 
L 3097 0 
L 2575 0 
z
M 797 1656 
Q 797 1019 1065 703 
Q 1334 388 1700 388 
Q 2069 388 2326 689 
Q 2584 991 2584 1609 
Q 2584 2291 2321 2609 
Q 2059 2928 1675 2928 
Q 1300 2928 1048 2622 
Q 797 2316 797 1656 
z
" transform="scale(0.015625)"/>
      </defs>
      <use xlink:href="#ArialMT-41"/>
      <use xlink:href="#ArialMT-6e" transform="translate(66.699219 0)"/>
      <use xlink:href="#ArialMT-67" transform="translate(122.314453 0)"/>
      <use xlink:href="#ArialMT-6c" transform="translate(177.929688 0)"/>
      <use xlink:href="#ArialMT-65" transform="translate(200.146484 0)"/>
      <use xlink:href="#ArialMT-20" transform="translate(255.761719 0)"/>
      <use xlink:href="#ArialMT-28" transform="translate(283.544922 0)"/>
      <use xlink:href="#ArialMT-72" transform="translate(316.845703 0)"/>
      <use xlink:href="#ArialMT-61" transform="translate(350.146484 0)"/>
      <use xlink:href="#ArialMT-64" transform="translate(405.761719 0)"/>
      <use xlink:href="#ArialMT-29" transform="translate(461.376953 0)"/>
     </g>
    </g>
   </g>
   <g id="line2d_14">
    <path d="M 67.3 414.752727 
L 67.717 414.651111 
L 68.134 414.351164 
L 68.968 413.254591 
L 69.802 411.596095 
L 70.636 409.473836 
L 71.887 405.526369 
L 73.555 399.210361 
L 75.64 390.03031 
L 78.559 375.607675 
L 84.397 345.352115 
L 88.984 321.878364 
L 92.737 303.571743 
L 96.073 288.049818 
L 99.826 271.847378 
L 103.579 256.621518 
L 108.583 238.119054 
L 111.919 226.719896 
L 115.672 214.738815 
L 118.174 207.281263 
L 120.259 201.258457 
L 124.429 190.240619 
L 128.599 180.049429 
L 133.186 169.740908 
L 136.522 162.825199 
L 141.526 153.221271 
L 145.696 146.197203 
L 148.198 142.243198 
L 153.202 134.760338 
L 156.121 130.947595 
L 164.878 120.208733 
L 167.797 117.1203 
L 177.388 108.220582 
L 180.724 105.52438 
L 183.226 103.489833 
L 187.396 100.539632 
L 189.064 99.407803 
L 190.732 98.354372 
L 192.817 97.03202 
L 199.489 93.223398 
L 207.829 88.910782 
L 211.582 87.40957 
L 213.25 86.828587 
L 216.586 85.559778 
L 218.671 84.857205 
L 228.679 81.441497 
L 229.93 81.086741 
L 232.015 80.582181 
L 235.351 79.750686 
L 236.602 79.397235 
L 239.938 78.671429 
L 242.857 78.110849 
L 244.108 77.848483 
L 249.529 76.709469 
L 255.367 75.672774 
L 260.371 74.964015 
L 270.796 73.455217 
L 275.8 72.986366 
L 277.885 72.864535 
L 287.059 71.932294 
L 289.978 71.834821 
L 298.735 71.060092 
L 307.492 70.538836 
L 309.16 70.462636 
L 320.419 69.677193 
L 322.087 69.704992 
L 324.172 69.670388 
L 327.091 69.553266 
L 329.176 69.393576 
L 330.427 69.34983 
L 331.678 69.234074 
L 333.763 69.145356 
L 335.431 69.138834 
L 342.52 68.998484 
L 345.856 69.091102 
L 350.026 68.891198 
L 351.277 68.875895 
L 352.945 68.776248 
L 355.447 68.837997 
L 358.366 68.695638 
L 361.702 68.722808 
L 365.455 68.579007 
L 367.54 68.672228 
L 368.791 68.634261 
L 372.544 68.616154 
L 375.463 68.510405 
L 378.382 68.47376 
L 383.803 68.344458 
L 384.637 68.412268 
L 386.305 68.386339 
L 388.807 68.360295 
L 389.641 68.347219 
L 390.892 68.353 
L 400.483 68.170166 
L 401.734 68.16046 
L 405.487 68.141156 
L 416.746 68.104863 
L 418.414 68.066328 
L 423.418 68.27545 
L 425.92 68.168727 
L 428.839 68.105626 
L 434.26 68.037397 
L 436.762 67.902454 
L 447.604 68.017342 
L 454.693 67.980525 
L 455.944 67.940335 
L 457.195 67.961895 
L 458.863 68.00663 
L 463.867 67.963135 
L 465.118 67.925026 
L 466.369 67.91965 
L 477.628 67.842465 
L 479.713 67.855006 
L 482.215 67.845253 
L 490.555 67.809454 
L 495.142 67.943884 
L 497.644 67.910756 
L 514.741 67.963261 
L 526.417 67.858375 
L 527.251 67.803471 
L 528.502 67.809273 
L 536.008 67.82087 
L 540.595 67.885221 
L 543.514 67.907841 
L 545.182 67.944492 
L 549.769 67.817758 
L 552.688 67.891549 
L 556.024 67.876162 
L 561.862 67.835736 
L 566.449 67.778912 
L 571.036 67.867382 
L 574.372 67.750384 
L 584.38 67.835339 
L 588.967 67.853531 
L 594.388 67.900124 
L 598.141 67.754442 
L 601.06 67.737319 
L 603.979 67.854523 
L 609.4 67.727905 
L 612.319 67.882787 
L 618.574 67.805997 
L 623.161 67.865861 
L 626.914 67.872973 
L 641.092 67.791774 
L 651.934 67.79763 
L 654.019 67.742916 
L 655.687 67.72774 
L 657.772 67.709148 
L 663.61 67.80675 
L 666.112 67.906374 
L 667.78 67.891355 
L 673.201 67.973306 
L 676.954 67.855115 
L 678.622 67.788221 
L 679.873 67.803763 
L 682.792 67.761264 
L 692.8 67.949014 
L 692.8 67.949014 
" clip-path="url(#p2f1e5ad435)" style="fill: none; stroke: #1f77b4; stroke-width: 1.5; stroke-linecap: round"/>
   </g>
   <g id="line2d_15">
    <path d="M 67.3 414.752727 
L 67.717 414.651111 
L 68.134 414.404294 
L 68.551 414.021562 
L 69.385 412.788231 
L 70.219 411.012564 
L 71.47 407.531153 
L 72.721 403.248252 
L 74.389 396.58642 
L 76.474 387.053158 
L 79.81 370.414565 
L 91.069 312.54538 
L 95.656 291.004126 
L 99.409 274.528517 
L 103.579 257.500944 
L 107.749 241.856024 
L 111.919 227.338517 
L 115.255 216.771314 
L 119.425 204.336066 
L 122.761 195.08594 
L 125.68 187.645448 
L 129.016 179.525701 
L 131.101 174.714898 
L 135.688 164.952254 
L 138.607 159.120795 
L 140.692 155.170243 
L 146.947 144.542231 
L 151.534 137.520189 
L 156.955 129.991439 
L 159.874 126.347868 
L 166.546 118.810388 
L 172.384 112.837398 
L 176.137 109.344771 
L 182.809 103.944768 
L 184.894 102.448655 
L 187.813 100.342472 
L 194.902 95.797601 
L 201.574 92.115156 
L 203.659 91.113877 
L 209.914 88.09323 
L 223.675 83.096006 
L 226.594 82.264917 
L 232.015 80.588083 
L 237.019 79.348607 
L 238.27 79.106707 
L 239.938 78.736566 
L 242.857 78.119079 
L 243.691 77.938337 
L 245.776 77.411738 
L 249.946 76.630587 
L 253.282 76.073764 
L 256.618 75.496876 
L 260.788 74.733997 
L 262.039 74.583575 
L 263.707 74.393488 
L 267.877 73.893894 
L 270.379 73.610459 
L 273.298 73.315722 
L 276.634 72.97703 
L 281.221 72.460551 
L 284.14 72.179199 
L 285.391 72.106323 
L 288.727 71.753073 
L 292.897 71.402549 
L 294.982 71.232528 
L 298.318 70.977548 
L 299.569 70.902428 
L 306.658 70.434466 
L 308.743 70.326871 
L 321.253 69.833889 
L 325.006 69.660508 
L 326.257 69.606476 
L 332.095 69.49684 
L 332.929 69.469144 
L 334.18 69.341471 
L 340.435 69.055484 
L 342.103 69.067949 
L 345.022 68.963535 
L 351.277 68.867546 
L 355.03 68.763623 
L 360.868 68.611216 
L 362.536 68.54141 
L 366.289 68.498986 
L 370.459 68.557998 
L 390.475 68.266034 
L 391.726 68.29217 
L 392.56 68.389981 
L 396.313 68.184375 
L 402.151 68.120378 
L 406.321 68.079975 
L 407.989 68.151017 
L 411.742 68.029833 
L 414.244 68.017644 
L 415.912 67.961691 
L 420.082 67.91141 
L 422.584 67.948911 
L 444.685 67.822036 
L 445.936 67.778017 
L 448.438 67.839516 
L 456.778 67.888619 
L 458.863 67.792142 
L 467.203 67.916052 
L 468.871 67.882349 
L 470.539 67.957166 
L 474.709 67.904308 
L 478.879 67.896759 
L 480.13 67.918664 
L 480.964 68.007181 
L 485.551 67.965784 
L 488.47 67.97061 
L 496.81 67.915428 
L 498.061 67.947389 
L 502.231 67.755577 
L 504.733 67.788431 
L 506.401 67.830375 
L 513.907 67.977325 
L 515.992 67.900113 
L 519.328 67.792759 
L 524.332 67.657798 
L 527.251 67.826582 
L 529.753 67.821163 
L 563.53 67.859141 
L 565.198 67.984977 
L 566.866 67.917569 
L 568.534 67.881877 
L 576.457 67.89011 
L 578.542 67.868041 
L 580.21 67.781972 
L 581.878 67.783346 
L 588.133 67.683386 
L 591.052 67.757044 
L 592.303 67.752973 
L 600.643 67.83454 
L 604.396 67.896239 
L 637.339 67.796199 
L 638.59 67.880577 
L 642.343 67.897327 
L 645.262 67.870223 
L 649.015 67.822927 
L 654.853 67.775942 
L 655.687 67.795426 
L 656.938 67.836595 
L 659.44 67.780233 
L 661.525 67.867267 
L 664.027 67.859907 
L 666.529 67.962662 
L 668.197 67.955417 
L 676.537 67.751691 
L 679.873 67.820312 
L 685.294 67.719442 
L 686.545 67.724354 
L 688.63 67.72829 
L 692.8 67.811977 
L 692.8 67.811977 
" clip-path="url(#p2f1e5ad435)" style="fill: none; stroke: #ff7f0e; stroke-width: 1.5; stroke-linecap: round"/>
   </g>
   <g id="line2d_16">
    <path d="M 67.3 414.752727 
L 67.717 414.651111 
L 68.134 414.364472 
L 68.551 413.902854 
L 69.385 412.511997 
L 70.219 410.705076 
L 71.47 407.147187 
L 72.721 402.843901 
L 74.389 396.003677 
L 76.474 386.442262 
L 79.393 371.890277 
L 90.235 316.105861 
L 93.988 298.118817 
L 96.907 284.995088 
L 101.911 263.746019 
L 104.83 252.231278 
L 109 236.991781 
L 113.17 222.748192 
L 117.34 209.781507 
L 119.842 202.668994 
L 125.263 188.204875 
L 131.518 173.518267 
L 136.522 162.999709 
L 141.526 153.459431 
L 146.947 144.248167 
L 151.534 137.343867 
L 154.87 132.755763 
L 162.793 122.850314 
L 169.048 116.043449 
L 172.384 112.857154 
L 180.724 105.529404 
L 183.643 103.30266 
L 191.149 98.161253 
L 192.4 97.399203 
L 194.068 96.38202 
L 201.574 92.141119 
L 204.91 90.467985 
L 206.161 89.882757 
L 206.995 89.436188 
L 208.663 88.795318 
L 210.748 87.873336 
L 212.416 87.268834 
L 214.918 86.288655 
L 216.586 85.629838 
L 221.173 84.003943 
L 227.428 82.020938 
L 236.602 79.487136 
L 243.691 77.914682 
L 250.363 76.449827 
L 261.205 74.681957 
L 263.707 74.446863 
L 266.209 74.024987 
L 270.379 73.484013 
L 276.634 72.815523 
L 278.719 72.558812 
L 281.221 72.362675 
L 284.974 71.962906 
L 310.411 70.28758 
L 313.747 70.196892 
L 316.666 70.075051 
L 317.917 69.984174 
L 319.168 69.902806 
L 356.698 68.776903 
L 362.953 68.714613 
L 370.876 68.38645 
L 382.969 68.232502 
L 384.22 68.245353 
L 386.305 68.182943 
L 388.807 68.204075 
L 391.309 68.09292 
L 392.56 68.038324 
L 396.73 68.051343 
L 397.981 68.102582 
L 407.989 68.132576 
L 415.495 68.159036 
L 417.163 68.150759 
L 421.333 68.035241 
L 423.001 68.116082 
L 438.847 67.98531 
L 440.515 68.001187 
L 442.183 67.940279 
L 443.851 67.952276 
L 448.021 67.942144 
L 450.523 67.99571 
L 453.442 68.011325 
L 459.28 68.037892 
L 460.948 68.062509 
L 464.701 67.909928 
L 468.871 67.877585 
L 470.539 67.894102 
L 488.887 67.904628 
L 493.891 67.900591 
L 496.393 67.888243 
L 503.899 67.836677 
L 505.984 67.785252 
L 517.243 67.869721 
L 520.162 67.788828 
L 525.166 67.892569 
L 527.668 68.038719 
L 532.672 67.960532 
L 536.008 67.855061 
L 537.259 67.77186 
L 547.267 67.880586 
L 548.518 67.919397 
L 551.02 67.890099 
L 557.275 67.900898 
L 563.113 67.84198 
L 568.117 67.657219 
L 573.121 67.682463 
L 581.878 67.840245 
L 587.716 67.816239 
L 590.635 67.889408 
L 593.554 67.95555 
L 594.805 68.017351 
L 600.643 67.948611 
L 604.813 68.042381 
L 613.153 67.801453 
L 614.404 67.760772 
L 616.489 67.782186 
L 629.416 67.729896 
L 646.93 67.684436 
L 651.934 67.789058 
L 655.27 67.68754 
L 656.938 67.712779 
L 665.695 67.761795 
L 667.363 67.721765 
L 668.614 67.653557 
L 676.537 67.850235 
L 679.039 67.80328 
L 686.962 67.798336 
L 692.8 67.682896 
L 692.8 67.682896 
" clip-path="url(#p2f1e5ad435)" style="fill: none; stroke: #2ca02c; stroke-width: 1.5; stroke-linecap: round"/>
   </g>
   <g id="line2d_17">
    <path d="M 67.3 26.607273 
L 692.8 26.607273 
" clip-path="url(#p2f1e5ad435)" style="fill: none; stroke-dasharray: 5.55,2.4; stroke-dashoffset: 0; stroke: #000000; stroke-width: 1.5"/>
   </g>
   <g id="line2d_18">
    <path d="M 67.3 109.024751 
L 692.8 109.024751 
" clip-path="url(#p2f1e5ad435)" style="fill: none; stroke-dasharray: 5.55,2.4; stroke-dashoffset: 0; stroke: #000000; stroke-width: 1.5"/>
   </g>
   <g id="patch_3">
    <path d="M 67.3 434.16 
L 67.3 7.2 
" style="fill: none; stroke: #000000; stroke-linejoin: miter; stroke-linecap: square"/>
   </g>
   <g id="patch_4">
    <path d="M 692.8 434.16 
L 692.8 7.2 
" style="fill: none; stroke: #000000; stroke-linejoin: miter; stroke-linecap: square"/>
   </g>
   <g id="patch_5">
    <path d="M 67.3 434.16 
L 692.8 434.16 
" style="fill: none; stroke: #000000; stroke-linejoin: miter; stroke-linecap: square"/>
   </g>
   <g id="patch_6">
    <path d="M 67.3 7.2 
L 692.8 7.2 
" style="fill: none; stroke: #000000; stroke-linejoin: miter; stroke-linecap: square"/>
   </g>
   <g id="legend_1">
    <g id="patch_7">
     <path d="M 483.105 428.16 
L 683.6 428.16 
Q 686.8 428.16 686.8 424.96 
L 686.8 336.03 
Q 686.8 332.83 683.6 332.83 
L 483.105 332.83 
Q 479.905 332.83 479.905 336.03 
L 479.905 424.96 
Q 479.905 428.16 483.105 428.16 
z
" style="fill: #4d4d4d; opacity: 0.5; stroke: #4d4d4d; stroke-linejoin: miter"/>
    </g>
    <g id="patch_8">
     <path d="M 481.105 426.16 
L 681.6 426.16 
Q 684.8 426.16 684.8 422.96 
L 684.8 334.03 
Q 684.8 330.83 681.6 330.83 
L 481.105 330.83 
Q 477.905 330.83 477.905 334.03 
L 477.905 422.96 
Q 477.905 426.16 481.105 426.16 
z
" style="fill: #ffffff; stroke: #d3d3d3; stroke-linejoin: miter"/>
    </g>
    <g id="line2d_19">
     <path d="M 484.305 343.0825 
L 500.305 343.0825 
L 516.305 343.0825 
" style="fill: none; stroke: #1f77b4; stroke-width: 1.5; stroke-linecap: round"/>
    </g>
    <g id="text_16">
     <!-- Run 1 -->
     <g transform="translate(529.105 348.6825) scale(0.16 -0.16)">
      <defs>
       <path id="ArialMT-52" d="M 503 0 
L 503 4581 
L 2534 4581 
Q 3147 4581 3465 4457 
Q 3784 4334 3975 4021 
Q 4166 3709 4166 3331 
Q 4166 2844 3850 2509 
Q 3534 2175 2875 2084 
Q 3116 1969 3241 1856 
Q 3506 1613 3744 1247 
L 4541 0 
L 3778 0 
L 3172 953 
Q 2906 1366 2734 1584 
Q 2563 1803 2427 1890 
Q 2291 1978 2150 2013 
Q 2047 2034 1813 2034 
L 1109 2034 
L 1109 0 
L 503 0 
z
M 1109 2559 
L 2413 2559 
Q 2828 2559 3062 2645 
Q 3297 2731 3419 2920 
Q 3541 3109 3541 3331 
Q 3541 3656 3305 3865 
Q 3069 4075 2559 4075 
L 1109 4075 
L 1109 2559 
z
" transform="scale(0.015625)"/>
       <path id="ArialMT-75" d="M 2597 0 
L 2597 488 
Q 2209 -75 1544 -75 
Q 1250 -75 995 37 
Q 741 150 617 320 
Q 494 491 444 738 
Q 409 903 409 1263 
L 409 3319 
L 972 3319 
L 972 1478 
Q 972 1038 1006 884 
Q 1059 663 1231 536 
Q 1403 409 1656 409 
Q 1909 409 2131 539 
Q 2353 669 2445 892 
Q 2538 1116 2538 1541 
L 2538 3319 
L 3100 3319 
L 3100 0 
L 2597 0 
z
" transform="scale(0.015625)"/>
      </defs>
      <use xlink:href="#ArialMT-52"/>
      <use xlink:href="#ArialMT-75" transform="translate(72.216797 0)"/>
      <use xlink:href="#ArialMT-6e" transform="translate(127.832031 0)"/>
      <use xlink:href="#ArialMT-20" transform="translate(183.447266 0)"/>
      <use xlink:href="#ArialMT-31" transform="translate(211.230469 0)"/>
     </g>
    </g>
    <g id="line2d_20">
     <path d="M 484.305 365.715 
L 500.305 365.715 
L 516.305 365.715 
" style="fill: none; stroke: #ff7f0e; stroke-width: 1.5; stroke-linecap: round"/>
    </g>
    <g id="text_17">
     <!-- Run 2 -->
     <g transform="translate(529.105 371.315) scale(0.16 -0.16)">
      <use xlink:href="#ArialMT-52"/>
      <use xlink:href="#ArialMT-75" transform="translate(72.216797 0)"/>
      <use xlink:href="#ArialMT-6e" transform="translate(127.832031 0)"/>
      <use xlink:href="#ArialMT-20" transform="translate(183.447266 0)"/>
      <use xlink:href="#ArialMT-32" transform="translate(211.230469 0)"/>
     </g>
    </g>
    <g id="line2d_21">
     <path d="M 484.305 388.3475 
L 500.305 388.3475 
L 516.305 388.3475 
" style="fill: none; stroke: #2ca02c; stroke-width: 1.5; stroke-linecap: round"/>
    </g>
    <g id="text_18">
     <!-- Run 3 -->
     <g transform="translate(529.105 393.9475) scale(0.16 -0.16)">
      <defs>
       <path id="ArialMT-33" d="M 269 1209 
L 831 1284 
Q 928 806 1161 595 
Q 1394 384 1728 384 
Q 2125 384 2398 659 
Q 2672 934 2672 1341 
Q 2672 1728 2419 1979 
Q 2166 2231 1775 2231 
Q 1616 2231 1378 2169 
L 1441 2663 
Q 1497 2656 1531 2656 
Q 1891 2656 2178 2843 
Q 2466 3031 2466 3422 
Q 2466 3731 2256 3934 
Q 2047 4138 1716 4138 
Q 1388 4138 1169 3931 
Q 950 3725 888 3313 
L 325 3413 
Q 428 3978 793 4289 
Q 1159 4600 1703 4600 
Q 2078 4600 2393 4439 
Q 2709 4278 2876 4000 
Q 3044 3722 3044 3409 
Q 3044 3113 2884 2869 
Q 2725 2625 2413 2481 
Q 2819 2388 3044 2092 
Q 3269 1797 3269 1353 
Q 3269 753 2831 336 
Q 2394 -81 1725 -81 
Q 1122 -81 723 278 
Q 325 638 269 1209 
z
" transform="scale(0.015625)"/>
      </defs>
      <use xlink:href="#ArialMT-52"/>
      <use xlink:href="#ArialMT-75" transform="translate(72.216797 0)"/>
      <use xlink:href="#ArialMT-6e" transform="translate(127.832031 0)"/>
      <use xlink:href="#ArialMT-20" transform="translate(183.447266 0)"/>
      <use xlink:href="#ArialMT-33" transform="translate(211.230469 0)"/>
     </g>
    </g>
    <g id="line2d_22">
     <path d="M 484.305 410.98 
L 500.305 410.98 
L 516.305 410.98 
" style="fill: none; stroke-dasharray: 5.55,2.4; stroke-dashoffset: 0; stroke: #000000; stroke-width: 1.5"/>
    </g>
    <g id="text_19">
     <!-- ±0.1 rad Error Bound -->
     <g transform="translate(529.105 416.58) scale(0.16 -0.16)">
      <defs>
       <path id="ArialMT-b1" d="M 1491 813 
L 1491 2072 
L 244 2072 
L 244 2594 
L 1491 2594 
L 1491 3841 
L 2022 3841 
L 2022 2594 
L 3269 2594 
L 3269 2072 
L 2022 2072 
L 2022 813 
L 1491 813 
z
M 3269 0 
L 244 0 
L 244 525 
L 3269 525 
L 3269 0 
z
" transform="scale(0.015625)"/>
       <path id="ArialMT-45" d="M 506 0 
L 506 4581 
L 3819 4581 
L 3819 4041 
L 1113 4041 
L 1113 2638 
L 3647 2638 
L 3647 2100 
L 1113 2100 
L 1113 541 
L 3925 541 
L 3925 0 
L 506 0 
z
" transform="scale(0.015625)"/>
       <path id="ArialMT-6f" d="M 213 1659 
Q 213 2581 725 3025 
Q 1153 3394 1769 3394 
Q 2453 3394 2887 2945 
Q 3322 2497 3322 1706 
Q 3322 1066 3130 698 
Q 2938 331 2570 128 
Q 2203 -75 1769 -75 
Q 1072 -75 642 372 
Q 213 819 213 1659 
z
M 791 1659 
Q 791 1022 1069 705 
Q 1347 388 1769 388 
Q 2188 388 2466 706 
Q 2744 1025 2744 1678 
Q 2744 2294 2464 2611 
Q 2184 2928 1769 2928 
Q 1347 2928 1069 2612 
Q 791 2297 791 1659 
z
" transform="scale(0.015625)"/>
       <path id="ArialMT-42" d="M 469 0 
L 469 4581 
L 2188 4581 
Q 2713 4581 3030 4442 
Q 3347 4303 3526 4014 
Q 3706 3725 3706 3409 
Q 3706 3116 3547 2856 
Q 3388 2597 3066 2438 
Q 3481 2316 3704 2022 
Q 3928 1728 3928 1328 
Q 3928 1006 3792 729 
Q 3656 453 3456 303 
Q 3256 153 2954 76 
Q 2653 0 2216 0 
L 469 0 
z
M 1075 2656 
L 2066 2656 
Q 2469 2656 2644 2709 
Q 2875 2778 2992 2937 
Q 3109 3097 3109 3338 
Q 3109 3566 3000 3739 
Q 2891 3913 2687 3977 
Q 2484 4041 1991 4041 
L 1075 4041 
L 1075 2656 
z
M 1075 541 
L 2216 541 
Q 2509 541 2628 563 
Q 2838 600 2978 687 
Q 3119 775 3209 942 
Q 3300 1109 3300 1328 
Q 3300 1584 3169 1773 
Q 3038 1963 2805 2039 
Q 2572 2116 2134 2116 
L 1075 2116 
L 1075 541 
z
" transform="scale(0.015625)"/>
      </defs>
      <use xlink:href="#ArialMT-b1"/>
      <use xlink:href="#ArialMT-30" transform="translate(54.882812 0)"/>
      <use xlink:href="#ArialMT-2e" transform="translate(110.498047 0)"/>
      <use xlink:href="#ArialMT-31" transform="translate(138.28125 0)"/>
      <use xlink:href="#ArialMT-20" transform="translate(193.896484 0)"/>
      <use xlink:href="#ArialMT-72" transform="translate(221.679688 0)"/>
      <use xlink:href="#ArialMT-61" transform="translate(254.980469 0)"/>
      <use xlink:href="#ArialMT-64" transform="translate(310.595703 0)"/>
      <use xlink:href="#ArialMT-20" transform="translate(366.210938 0)"/>
      <use xlink:href="#ArialMT-45" transform="translate(393.994141 0)"/>
      <use xlink:href="#ArialMT-72" transform="translate(460.693359 0)"/>
      <use xlink:href="#ArialMT-72" transform="translate(493.994141 0)"/>
      <use xlink:href="#ArialMT-6f" transform="translate(527.294922 0)"/>
      <use xlink:href="#ArialMT-72" transform="translate(582.910156 0)"/>
      <use xlink:href="#ArialMT-20" transform="translate(616.210938 0)"/>
      <use xlink:href="#ArialMT-42" transform="translate(643.994141 0)"/>
      <use xlink:href="#ArialMT-6f" transform="translate(710.693359 0)"/>
      <use xlink:href="#ArialMT-75" transform="translate(766.308594 0)"/>
      <use xlink:href="#ArialMT-6e" transform="translate(821.923828 0)"/>
      <use xlink:href="#ArialMT-64" transform="translate(877.539062 0)"/>
     </g>
    </g>
   </g>
  </g>
 </g>
 <defs>
  <clipPath id="p2f1e5ad435">
   <rect x="67.3" y="7.2" width="625.5" height="426.96"/>
  </clipPath>
 </defs>
</svg>
